<?xml version="1.0" standalone="no"?>
   <!DOCTYPE svg PUBLIC "-//W3C//DTD SVG 1.1//EN" 
   "http://www.w3.org/Graphics/SVG/1.1/DTD/svg11.dtd"><svg id="svg" version="1.1" width="5574" height="4776" xmlns="http://www.w3.org/2000/svg"><path d="M3975.769 400.934 C 3955.004 411.171,3933.125 443.547,3882.225 539.364 C 3820.834 654.931,3800.525 703.129,3782.864 775.185 C 3772.376 817.971,3766.133 859.863,3763.590 904.500 C 3760.006 967.400,3753.186 982.728,3723.001 995.713 C 3705.426 1003.274,3699.627 1011.314,3676.095 1060.741 C 3636.555 1143.791,3632.331 1204.934,3660.160 1291.391 C 3670.348 1323.044,3722.287 1429.766,3750.923 1477.888 C 3761.851 1496.251,3778.010 1519.876,3786.833 1530.388 C 3819.012 1568.725,3846.095 1612.598,3859.394 1647.929 C 3872.582 1682.968,3868.495 1688.261,3844.077 1667.764 C 3805.541 1635.417,3662.383 1578.598,3552.950 1552.216 C 3444.255 1526.013,3375.462 1520.460,3335.194 1534.639 C 3308.731 1543.956,3304.291 1543.340,3257.753 1523.897 C 3185.288 1493.621,3096.025 1467.503,3028.500 1456.819 C 3012.000 1454.208,2952.945 1449.335,2897.266 1445.989 C 2841.587 1442.643,2785.562 1437.909,2772.766 1435.470 C 2755.535 1432.185,2735.883 1424.469,2697.000 1405.722 C 2621.441 1369.292,2568.997 1352.321,2484.000 1336.791 C 2418.771 1324.874,2368.196 1320.088,2274.000 1316.922 C 2139.476 1312.401,2116.250 1306.192,2032.500 1252.367 C 1999.677 1231.272,1999.887 1231.311,1986.100 1243.766 C 1963.849 1263.869,1964.455 1277.731,1990.343 1340.938 C 2015.760 1402.997,2049.892 1464.685,2092.190 1525.009 C 2140.569 1594.007,2178.415 1636.433,2241.748 1692.664 C 2313.717 1756.563,2313.508 1756.288,2348.606 1833.911 C 2361.389 1862.181,2381.378 1891.075,2409.292 1921.635 C 2422.331 1935.910,2433.000 1949.482,2433.000 1951.795 C 2433.000 1958.437,2405.763 1957.025,2370.887 1948.576 C 2313.021 1934.556,2270.412 1929.996,2160.180 1926.023 C 2041.487 1921.745,1875.423 1928.418,1672.500 1945.621 C 1611.703 1950.774,1451.910 1977.947,1399.500 1992.043 C 1304.790 2017.517,1255.948 2035.475,1165.724 2077.996 C 1084.462 2116.294,1018.306 2152.412,968.098 2185.893 C 945.001 2201.295,921.544 2214.752,915.971 2215.797 C 910.135 2216.892,904.413 2220.360,902.478 2223.975 C 897.966 2232.406,891.283 2237.947,859.500 2259.610 C 817.491 2288.243,790.966 2310.743,745.448 2356.359 C 698.879 2403.027,675.975 2430.116,648.890 2470.564 C 638.923 2485.449,628.475 2499.531,625.672 2501.857 C 615.513 2510.288,559.054 2610.932,540.418 2653.830 C 530.065 2677.661,482.155 2833.882,475.196 2866.500 C 462.433 2926.326,458.110 3052.417,466.402 3123.018 C 486.639 3295.314,558.640 3470.133,669.032 3615.000 C 729.528 3694.390,890.427 3854.577,1011.000 3955.454 C 1047.162 3985.710,1223.456 4105.682,1285.905 4142.534 C 1328.709 4167.793,1476.220 4232.848,1510.877 4241.750 C 1523.870 4245.087,1568.925 4259.408,1611.000 4273.574 C 1720.903 4310.577,1751.950 4319.589,1780.826 4322.870 C 1797.252 4324.736,1810.023 4327.997,1816.439 4331.962 C 1840.024 4346.539,1964.736 4365.296,2095.500 4373.934 C 2217.842 4382.016,2316.706 4373.078,2461.576 4340.835 C 2596.593 4310.786,2633.771 4297.465,2838.000 4205.961 C 2963.049 4149.933,2991.539 4138.343,3080.850 4107.165 C 3162.026 4078.827,3231.532 4057.590,3341.887 4027.408 C 3494.073 3985.786,3748.478 3910.409,3871.500 3870.491 C 3915.228 3856.302,3954.983 3841.052,3992.419 3824.105 C 4152.988 3751.419,4348.580 3591.216,4443.670 3454.500 C 4492.150 3384.797,4545.603 3270.462,4573.403 3177.000 C 4587.241 3130.480,4591.765 3109.757,4597.327 3067.398 C 4606.872 2994.722,4613.846 2981.152,4650.950 2963.059 C 4699.736 2939.270,4751.758 2929.662,4831.500 2929.714 C 4940.432 2929.784,5019.553 2950.688,5066.407 2991.779 C 5086.653 3009.534,5097.679 3013.892,5104.669 3006.902 C 5114.395 2997.177,5107.497 2983.799,5078.797 2956.725 C 5035.703 2916.073,4965.967 2876.925,4912.500 2863.372 C 4851.780 2847.981,4708.848 2828.780,4648.815 2827.951 L 4616.129 2827.500 4618.067 2664.000 C 4619.133 2574.075,4621.297 2486.325,4622.875 2469.000 C 4626.224 2432.248,4636.954 2389.222,4663.984 2304.163 C 4704.038 2178.123,4703.565 2180.339,4705.753 2108.335 C 4708.069 2032.086,4703.099 1918.790,4696.493 1897.281 C 4693.997 1889.152,4690.050 1871.025,4687.723 1857.000 C 4683.251 1830.048,4679.890 1820.156,4650.007 1746.000 C 4629.399 1694.861,4616.266 1672.509,4585.772 1636.675 C 4550.852 1595.641,4542.410 1580.066,4537.703 1548.000 C 4534.150 1523.792,4529.286 1504.701,4523.944 1494.000 C 4520.587 1487.274,4518.690 1476.492,4518.668 1464.000 C 4518.595 1422.255,4492.019 1343.482,4455.411 1276.500 C 4417.294 1206.755,4374.371 1152.003,4332.000 1119.076 C 4299.813 1094.064,4296.011 1086.917,4296.005 1051.421 C 4295.994 991.081,4284.654 942.237,4258.410 889.500 C 4236.419 845.308,4210.495 809.970,4161.405 757.269 C 4138.907 733.116,4114.072 705.062,4106.217 694.927 C 4074.948 654.587,4052.895 595.245,4024.696 475.561 C 4005.326 393.353,4001.863 388.070,3975.769 400.934 M3964.467 518.250 C 3965.627 521.138,3968.428 561.975,3970.690 609.000 C 3975.402 706.915,3979.646 748.009,3996.096 855.000 C 4007.058 926.294,4013.917 978.377,4013.975 990.750 C 4013.989 993.638,4012.507 996.000,4010.682 996.000 C 4000.208 996.000,3943.811 935.999,3904.938 883.500 C 3877.533 846.488,3866.635 833.365,3864.815 835.185 C 3860.442 839.558,3903.104 901.109,3958.606 970.500 C 4016.079 1042.356,4040.792 1082.204,4040.934 1103.250 C 4040.986 1110.870,4039.748 1113.000,4035.269 1113.000 C 4018.352 1113.000,3958.340 1048.969,3891.097 959.175 C 3874.077 936.446,3859.580 918.420,3858.883 919.117 C 3856.895 921.105,3878.397 962.590,3891.736 982.500 C 3914.764 1016.874,3949.792 1057.656,4002.825 1111.840 L 4056.151 1166.323 4080.075 1254.411 C 4093.234 1302.860,4110.175 1361.730,4117.723 1385.233 C 4141.135 1458.135,4139.152 1458.008,4039.716 1380.258 C 4011.986 1358.576,3986.418 1339.466,3982.899 1337.792 C 3968.052 1330.732,4080.429 1434.040,4123.652 1467.187 C 4147.025 1485.111,4165.275 1518.230,4158.140 1529.774 C 4154.688 1535.359,4132.302 1522.133,4043.425 1461.993 C 3977.133 1417.137,3932.643 1382.276,3877.500 1331.980 C 3826.846 1285.780,3805.957 1278.232,3850.753 1322.317 C 3908.940 1379.580,3964.347 1425.193,4070.379 1503.122 C 4147.238 1559.609,4179.304 1587.806,4189.228 1607.632 C 4198.354 1625.861,4207.115 1652.885,4204.687 1655.313 C 4201.388 1658.612,4183.157 1647.195,4105.186 1593.000 C 4063.644 1564.125,4022.847 1536.838,4014.525 1532.361 C 3994.050 1521.347,3924.341 1468.368,3878.829 1429.231 C 3838.278 1394.361,3828.738 1387.262,3826.045 1389.955 C 3823.154 1392.846,3840.597 1412.926,3873.575 1444.670 C 3932.375 1501.271,3984.996 1544.619,4047.000 1587.533 C 4113.922 1633.851,4207.103 1714.319,4228.245 1744.050 C 4235.462 1754.198,4251.186 1780.050,4263.189 1801.500 C 4293.821 1856.241,4350.000 1974.152,4350.000 1983.701 C 4350.000 1985.444,4342.913 1980.176,4334.250 1971.994 C 4325.588 1963.811,4289.475 1935.378,4254.000 1908.808 C 4181.395 1854.429,4138.068 1818.961,4092.000 1776.194 C 4049.810 1737.026,4022.082 1713.000,4019.068 1713.000 C 4004.340 1713.000,4177.955 1883.867,4266.000 1956.023 C 4355.693 2029.530,4404.241 2087.198,4441.508 2164.500 C 4466.359 2216.048,4478.255 2253.000,4470.000 2253.000 C 4468.350 2253.000,4467.000 2250.921,4467.000 2248.380 C 4467.000 2227.660,4381.916 2113.409,4328.572 2062.500 C 4287.431 2023.236,4224.604 1971.548,4210.364 1965.249 C 4203.591 1962.253,4181.951 1950.292,4162.275 1938.670 C 4142.599 1927.047,4111.650 1911.110,4093.500 1903.254 C 4063.308 1890.186,4058.456 1886.908,4036.479 1864.735 C 3990.248 1818.091,3919.001 1716.583,3909.057 1683.190 C 3902.298 1660.495,3857.588 1569.208,3834.028 1530.000 C 3825.601 1515.975,3813.372 1499.049,3806.853 1492.386 C 3800.334 1485.724,3794.999 1478.299,3794.998 1475.886 C 3794.997 1473.474,3783.843 1451.250,3770.212 1426.500 C 3728.738 1351.197,3704.966 1293.710,3694.651 1243.770 C 3688.839 1215.631,3688.852 1212.252,3694.783 1209.976 C 3698.163 1208.679,3712.471 1220.853,3743.533 1251.455 C 3767.715 1275.277,3790.822 1297.408,3794.882 1300.634 L 3802.265 1306.500 3796.736 1297.500 C 3787.918 1283.147,3769.323 1259.287,3726.960 1207.967 L 3687.421 1160.068 3697.464 1131.968 C 3709.768 1097.544,3721.394 1077.000,3728.571 1077.000 C 3731.735 1077.000,3736.000 1081.428,3739.102 1087.933 C 3748.221 1107.056,3803.966 1176.000,3810.309 1176.000 C 3816.462 1176.000,3811.943 1167.240,3794.833 1146.000 C 3772.851 1118.711,3750.433 1074.538,3748.231 1054.174 C 3746.987 1042.670,3747.969 1037.394,3752.778 1029.750 C 3764.396 1011.283,3773.658 1018.015,3787.601 1055.058 C 3810.758 1116.579,3873.751 1209.000,3892.527 1209.000 C 3902.649 1209.000,3900.570 1199.235,3885.933 1178.038 C 3859.590 1139.885,3829.300 1078.881,3820.127 1045.500 C 3812.113 1016.340,3808.709 946.225,3812.582 890.133 C 3817.777 814.925,3824.961 787.712,3861.801 703.698 C 3877.348 668.243,3880.470 663.004,3882.359 669.198 C 3883.584 673.214,3888.051 688.159,3892.285 702.408 C 3900.837 731.186,3909.298 744.735,3915.137 739.000 C 3919.246 734.963,3918.017 696.769,3911.752 633.830 C 3907.875 594.882,3907.918 594.036,3914.134 587.330 C 3917.616 583.574,3928.106 565.313,3937.444 546.750 C 3953.952 513.936,3960.120 507.430,3964.467 518.250 M4098.561 756.719 C 4119.712 781.944,4128.000 796.104,4128.000 807.014 C 4128.000 815.612,4094.217 918.104,4080.885 949.953 C 4068.003 980.726,4063.910 984.763,4059.192 971.346 C 4051.504 949.483,4026.474 771.933,4018.301 681.283 L 4016.297 659.066 4047.399 695.930 C 4064.504 716.205,4087.527 743.560,4098.561 756.719 M4164.150 840.557 C 4168.518 856.779,4163.194 876.256,4128.398 971.338 C 4098.420 1053.256,4090.670 1070.943,4083.741 1073.253 C 4077.410 1075.363,4073.386 1058.703,4072.934 1028.508 C 4072.558 1003.374,4073.336 998.385,4078.785 991.008 C 4089.010 977.168,4093.778 966.438,4114.749 910.084 C 4125.716 880.613,4138.670 847.725,4143.536 837.000 C 4151.881 818.606,4152.631 817.835,4156.753 823.407 C 4159.156 826.656,4162.485 834.374,4164.150 840.557 M4206.374 882.374 C 4214.680 890.680,4212.966 906.828,4199.873 943.639 C 4194.619 958.412,4176.462 1012.490,4159.525 1063.811 C 4129.401 1155.092,4114.549 1194.000,4109.831 1194.000 C 4107.088 1194.000,4099.329 1160.862,4096.456 1136.875 C 4092.807 1106.405,4100.317 1081.627,4145.976 973.500 C 4157.821 945.450,4170.477 913.725,4174.101 903.000 C 4177.725 892.275,4181.739 881.813,4183.022 879.750 C 4186.655 873.909,4199.334 875.334,4206.374 882.374 M4235.689 959.418 C 4243.893 974.747,4248.736 1018.792,4246.805 1060.500 C 4243.147 1139.521,4221.910 1304.125,4202.615 1403.011 C 4192.453 1455.092,4189.960 1462.454,4185.014 1455.000 C 4169.427 1431.511,4137.000 1295.291,4137.000 1253.300 C 4137.000 1230.495,4141.696 1199.681,4150.608 1164.000 C 4159.561 1128.156,4210.731 973.574,4217.356 962.359 C 4222.995 952.813,4231.429 951.460,4235.689 959.418 M4316.267 1170.972 C 4346.233 1202.179,4347.141 1219.937,4322.966 1302.000 C 4316.404 1324.275,4301.508 1376.925,4289.863 1419.000 C 4278.219 1461.075,4263.812 1513.050,4257.849 1534.500 C 4246.397 1575.691,4236.692 1602.000,4232.950 1602.000 C 4228.160 1602.000,4226.834 1562.242,4229.949 1512.000 C 4235.977 1414.767,4240.372 1384.944,4261.342 1299.000 C 4269.997 1263.525,4280.999 1215.938,4285.789 1193.251 C 4290.580 1170.565,4295.299 1152.002,4296.274 1152.001 C 4297.250 1152.001,4306.247 1160.537,4316.267 1170.972 M4395.784 1265.923 C 4411.145 1287.788,4410.480 1300.192,4389.428 1384.500 C 4365.049 1482.131,4346.324 1563.095,4333.575 1626.000 C 4327.723 1654.875,4320.273 1690.650,4317.019 1705.500 C 4313.765 1720.350,4311.080 1737.563,4311.052 1743.750 C 4311.010 1752.823,4309.886 1755.000,4305.245 1755.000 C 4294.818 1755.000,4277.887 1722.237,4268.813 1684.500 C 4254.096 1623.294,4265.431 1553.681,4314.385 1404.633 C 4330.800 1354.656,4344.771 1308.081,4345.432 1301.133 C 4346.094 1294.185,4352.440 1276.595,4359.535 1262.044 L 4372.436 1235.588 4379.395 1244.044 C 4383.223 1248.695,4390.598 1258.540,4395.784 1265.923 M4441.500 1363.735 C 4450.449 1381.400,4450.499 1381.780,4450.312 1431.000 C 4450.134 1477.829,4449.444 1483.538,4437.539 1536.802 C 4430.618 1567.768,4420.910 1619.068,4415.966 1650.802 C 4411.022 1682.536,4401.555 1730.366,4394.928 1757.091 C 4388.300 1783.816,4381.531 1819.896,4379.885 1837.269 C 4376.676 1871.137,4371.762 1890.299,4365.783 1892.259 C 4363.547 1892.993,4357.830 1884.181,4351.429 1870.135 C 4345.578 1857.297,4337.126 1842.002,4332.646 1836.146 C 4324.674 1825.727,4324.501 1824.605,4324.545 1783.500 C 4324.588 1742.645,4325.146 1739.007,4345.021 1650.000 C 4392.985 1435.196,4418.831 1341.475,4429.167 1344.874 C 4431.000 1345.477,4436.550 1353.964,4441.500 1363.735 M2233.500 1381.244 C 2272.651 1394.498,2371.250 1449.513,2447.303 1500.539 C 2464.490 1512.070,2482.626 1522.925,2487.605 1524.661 C 2492.585 1526.396,2502.385 1533.543,2509.385 1540.543 C 2523.806 1554.964,2572.500 1580.700,2576.948 1576.252 C 2581.115 1572.085,2576.923 1567.830,2563.500 1562.601 C 2556.900 1560.030,2538.000 1547.764,2521.500 1535.344 C 2482.589 1506.054,2367.310 1426.287,2337.610 1408.101 C 2306.098 1388.806,2300.073 1383.232,2304.701 1377.656 C 2307.427 1374.370,2312.674 1373.681,2325.858 1374.877 C 2351.253 1377.179,2398.318 1401.344,2470.500 1449.139 C 2574.090 1517.731,2629.722 1551.028,2640.664 1550.985 C 2646.527 1550.962,2631.399 1539.420,2573.280 1499.572 C 2544.009 1479.502,2512.122 1456.685,2502.418 1448.866 C 2492.715 1441.047,2479.539 1432.195,2473.138 1429.195 C 2466.737 1426.195,2451.375 1413.617,2439.000 1401.244 C 2417.693 1379.941,2416.912 1378.693,2424.274 1377.721 C 2447.371 1374.669,2554.045 1431.743,2651.162 1499.113 C 2702.129 1534.469,2717.925 1543.294,2722.297 1538.852 C 2725.941 1535.149,2728.437 1537.204,2663.004 1490.046 C 2638.236 1472.196,2605.574 1450.295,2590.420 1441.376 C 2550.552 1417.913,2545.091 1408.929,2574.732 1415.569 C 2617.445 1425.138,2690.895 1464.087,2766.943 1517.496 C 2876.621 1594.523,2963.137 1641.886,3024.000 1658.220 C 3065.299 1669.304,3078.605 1671.391,3084.257 1667.671 C 3090.878 1663.313,3079.484 1655.471,3030.184 1630.457 C 2976.736 1603.338,2935.683 1576.767,2884.500 1536.165 C 2829.251 1492.338,2830.730 1496.114,2869.500 1497.857 C 2907.609 1499.571,2927.050 1505.395,2974.900 1529.432 C 3031.774 1558.002,3078.660 1588.317,3184.500 1664.949 C 3256.323 1716.952,3280.269 1733.566,3303.000 1747.166 L 3316.500 1755.243 3301.500 1741.316 C 3274.212 1715.982,3078.610 1560.887,3042.000 1535.557 C 3029.104 1526.635,3022.157 1519.711,3021.486 1515.113 C 3020.527 1508.533,3021.204 1508.243,3034.099 1509.696 C 3060.856 1512.712,3132.972 1554.728,3187.500 1599.071 C 3200.700 1609.805,3218.250 1622.452,3226.500 1627.175 C 3234.750 1631.898,3247.109 1641.146,3253.965 1647.726 C 3260.821 1654.306,3268.246 1659.048,3270.465 1658.264 C 3272.969 1657.379,3254.114 1636.191,3220.760 1602.409 C 3191.203 1572.473,3167.738 1547.262,3168.615 1546.385 C 3174.645 1540.355,3244.993 1579.868,3307.500 1624.393 C 3352.900 1656.733,3377.847 1677.116,3437.144 1730.319 C 3524.924 1809.080,3593.875 1864.125,3598.704 1859.296 C 3601.884 1856.116,3591.504 1840.766,3569.766 1816.500 C 3557.941 1803.300,3544.810 1787.100,3540.587 1780.500 C 3536.364 1773.900,3522.445 1757.700,3509.657 1744.500 C 3496.868 1731.300,3471.801 1704.019,3453.952 1683.876 C 3436.103 1663.733,3405.992 1630.815,3387.037 1610.725 L 3352.574 1574.198 3379.537 1575.551 C 3397.757 1576.465,3410.878 1578.875,3420.000 1582.984 C 3448.053 1595.618,3488.122 1631.108,3608.521 1749.962 C 3676.751 1817.316,3733.312 1871.688,3734.212 1870.788 C 3737.769 1867.231,3673.706 1793.633,3567.999 1679.838 C 3513.755 1621.444,3501.207 1606.106,3501.083 1598.048 C 3500.985 1591.641,3506.604 1592.810,3528.297 1603.710 C 3558.950 1619.112,3662.023 1722.991,3776.643 1854.000 C 3815.938 1898.914,3905.999 1992.181,3901.209 1983.000 C 3892.535 1966.378,3715.218 1753.672,3674.548 1711.104 C 3642.776 1677.848,3606.000 1633.866,3606.000 1629.124 C 3606.000 1623.566,3616.301 1623.299,3628.034 1628.554 C 3634.890 1631.625,3649.275 1640.708,3660.000 1648.738 C 3684.590 1667.149,3775.706 1756.444,3821.236 1806.750 C 3840.276 1827.788,3857.722 1845.000,3860.004 1845.000 C 3870.339 1845.000,3842.565 1808.536,3779.141 1738.834 C 3740.927 1696.839,3725.591 1676.409,3729.414 1672.586 C 3735.053 1666.947,3798.012 1701.691,3843.000 1735.267 C 3876.093 1759.966,3932.113 1818.031,3957.621 1854.071 C 3968.687 1869.707,3988.539 1903.425,4001.735 1929.000 C 4028.700 1981.257,4040.735 1997.424,4102.812 2064.778 C 4164.912 2132.158,4219.415 2180.585,4225.877 2174.123 C 4229.348 2170.652,4211.397 2144.375,4180.922 2108.314 C 4109.366 2023.642,4085.494 1990.219,4081.185 1968.677 C 4078.604 1955.769,4082.302 1956.119,4107.667 1971.188 C 4152.056 1997.560,4196.079 2046.872,4307.586 2195.131 C 4351.733 2253.828,4357.877 2261.123,4360.746 2258.254 C 4363.360 2255.640,4342.320 2218.203,4328.267 2200.466 C 4299.219 2163.800,4265.534 2118.628,4245.360 2089.287 C 4233.935 2072.670,4221.080 2056.777,4216.793 2053.968 C 4207.703 2048.012,4206.485 2040.000,4214.670 2040.000 C 4224.751 2040.000,4257.543 2066.691,4299.000 2108.640 C 4367.834 2178.292,4416.503 2248.530,4454.355 2332.844 C 4471.134 2370.218,4488.457 2420.849,4487.384 2429.378 C 4486.543 2436.066,4484.839 2435.369,4452.000 2414.896 C 4433.025 2403.067,4386.450 2372.779,4348.500 2347.590 C 4310.550 2322.401,4263.975 2294.029,4245.000 2284.541 C 4226.025 2275.052,4188.900 2254.816,4162.500 2239.571 C 4100.022 2203.492,4039.564 2170.354,3943.500 2119.532 C 3900.600 2096.836,3856.725 2073.194,3846.000 2066.995 C 3835.275 2060.797,3816.375 2052.100,3804.000 2047.670 C 3791.625 2043.241,3763.086 2031.647,3740.579 2021.908 C 3681.658 1996.410,3658.297 1987.308,3606.000 1969.472 C 3580.425 1960.750,3545.325 1947.306,3528.000 1939.596 C 3510.675 1931.885,3476.250 1919.688,3451.500 1912.490 C 3426.750 1905.292,3377.475 1889.992,3342.000 1878.490 C 3255.585 1850.472,3238.037 1845.429,3209.465 1840.406 C 3196.089 1838.054,3182.192 1834.195,3178.582 1831.830 C 3162.646 1821.388,3100.113 1802.539,3043.883 1791.227 C 3027.983 1788.029,3001.951 1779.643,2984.531 1772.109 C 2967.464 1764.728,2942.325 1756.460,2928.668 1753.736 C 2895.044 1747.031,2806.768 1719.818,2752.200 1699.337 C 2727.616 1690.110,2701.052 1681.337,2693.167 1679.842 C 2685.282 1678.347,2664.116 1670.285,2646.132 1661.928 C 2628.148 1653.571,2601.171 1642.758,2586.183 1637.900 C 2535.971 1621.625,2391.186 1550.122,2307.937 1500.486 C 2291.128 1490.464,2267.503 1477.310,2255.437 1471.256 C 2221.588 1454.270,2130.000 1382.789,2130.000 1373.357 C 2130.000 1371.256,2143.147 1370.697,2169.750 1371.668 C 2202.519 1372.864,2213.715 1374.546,2233.500 1381.244 M2143.052 1455.080 C 2168.512 1469.679,2284.424 1545.674,2290.500 1551.751 C 2296.041 1557.294,2249.432 1551.774,2224.500 1543.934 C 2192.528 1533.882,2178.000 1531.350,2178.000 1535.832 C 2178.000 1544.791,2244.026 1565.617,2311.855 1578.052 C 2329.810 1581.344,2351.867 1586.173,2360.872 1588.783 C 2381.605 1594.793,2406.000 1607.065,2406.000 1611.484 C 2406.000 1616.195,2376.556 1613.049,2335.500 1603.950 C 2288.402 1593.513,2276.178 1591.975,2277.637 1596.670 C 2279.404 1602.359,2296.802 1610.127,2320.500 1615.811 C 2332.050 1618.580,2355.974 1624.755,2373.664 1629.532 C 2391.354 1634.309,2420.017 1639.464,2437.360 1640.988 C 2476.241 1644.404,2507.708 1654.536,2569.379 1683.495 C 2594.196 1695.149,2615.175 1705.378,2616.000 1706.227 C 2621.209 1711.585,2513.402 1697.535,2461.500 1686.091 C 2408.789 1674.469,2394.000 1672.436,2394.000 1676.812 C 2394.000 1682.240,2412.483 1688.831,2463.000 1701.418 C 2512.741 1713.812,2597.576 1728.738,2649.000 1734.144 C 2695.787 1739.063,2731.849 1747.229,2787.000 1765.394 C 2814.225 1774.361,2844.522 1783.118,2854.326 1784.854 C 2873.342 1788.220,2880.108 1793.491,2871.614 1798.322 C 2863.390 1803.000,2758.618 1804.045,2686.762 1800.166 C 2571.802 1793.961,2534.056 1787.927,2468.651 1765.301 C 2364.792 1729.372,2250.373 1649.776,2188.625 1570.500 C 2155.785 1528.339,2116.242 1465.614,2110.611 1446.750 C 2107.581 1436.602,2113.457 1438.111,2143.052 1455.080 M4485.039 1524.000 C 4486.527 1531.425,4489.176 1602.975,4490.925 1683.000 C 4494.432 1843.474,4497.393 1895.955,4503.805 1911.295 C 4508.160 1921.715,4516.911 1931.089,4519.688 1928.312 C 4520.537 1927.463,4521.741 1899.258,4522.365 1865.634 C 4523.923 1781.587,4534.023 1683.777,4541.963 1675.837 C 4550.866 1666.934,4578.407 1698.602,4599.299 1741.764 C 4617.142 1778.628,4619.238 1792.707,4612.971 1833.587 C 4602.611 1901.163,4596.104 1956.582,4585.566 2067.000 C 4573.761 2190.688,4560.565 2303.239,4557.127 2309.555 C 4555.709 2312.161,4550.311 2303.100,4542.015 2284.183 C 4525.581 2246.712,4524.631 2233.654,4532.537 2154.000 C 4535.894 2120.175,4539.368 2081.700,4540.256 2068.500 L 4541.871 2044.500 4531.430 2083.500 C 4515.941 2141.359,4505.715 2172.001,4501.897 2171.995 C 4494.705 2171.983,4476.347 2137.062,4432.961 2040.866 C 4397.617 1962.501,4392.000 1944.946,4392.000 1912.844 C 4392.000 1882.779,4399.146 1823.256,4407.347 1785.000 C 4410.708 1769.325,4423.396 1707.101,4435.544 1646.725 C 4456.468 1542.726,4468.298 1490.181,4472.216 1483.841 C 4474.039 1480.892,4480.378 1500.748,4485.039 1524.000 M2439.662 1810.383 C 2542.330 1840.358,2551.829 1841.309,2784.000 1844.855 C 2970.033 1847.696,3035.807 1849.633,3058.074 1852.926 C 3067.674 1854.345,3068.953 1855.301,3065.574 1858.526 C 3057.847 1865.903,2944.759 1882.440,2841.000 1891.366 C 2727.178 1901.159,2713.578 1902.527,2710.575 1904.490 C 2705.611 1907.735,2802.110 1909.677,2857.500 1907.447 C 2946.977 1903.846,3065.703 1888.454,3109.191 1874.818 C 3132.659 1867.460,3145.841 1867.528,3166.114 1875.113 C 3186.516 1882.747,3191.857 1888.260,3183.291 1892.844 C 3168.924 1900.533,2978.406 1934.162,2884.500 1945.584 C 2815.931 1953.925,2813.001 1954.435,2811.740 1958.250 C 2808.917 1966.790,2885.838 1961.937,2967.000 1948.455 C 2990.925 1944.481,3036.825 1937.735,3069.000 1933.463 C 3101.175 1929.191,3144.375 1922.339,3165.000 1918.236 C 3224.536 1906.392,3247.537 1905.842,3285.000 1915.366 C 3361.789 1934.887,3411.000 1951.835,3411.000 1958.758 C 3411.000 1974.855,3250.330 2005.086,3123.000 2012.947 C 3069.372 2016.258,3060.000 2017.577,3060.000 2021.816 C 3060.000 2032.049,3178.616 2024.754,3306.000 2006.688 C 3346.327 2000.968,3364.295 1997.647,3427.030 1984.321 C 3446.949 1980.089,3455.237 1979.822,3481.030 1982.582 C 3530.023 1987.823,3559.396 1997.461,3553.829 2006.468 C 3549.332 2013.745,3459.288 2029.704,3366.000 2039.759 C 3283.680 2048.632,3246.302 2057.729,3291.430 2057.909 C 3318.530 2058.017,3373.166 2052.506,3474.000 2039.496 C 3571.610 2026.901,3615.453 2026.514,3649.899 2037.943 C 3679.024 2047.607,3685.709 2053.358,3673.304 2058.075 C 3668.712 2059.820,3641.228 2064.667,3612.228 2068.846 C 3583.227 2073.024,3516.975 2084.365,3465.000 2094.047 C 3348.940 2115.668,3325.311 2118.950,3225.000 2127.380 C 3111.534 2136.915,3096.794 2136.521,3052.500 2122.764 C 3032.700 2116.614,2945.625 2092.660,2859.000 2069.533 C 2772.375 2046.405,2679.225 2020.165,2652.000 2011.220 C 2592.904 1991.805,2539.061 1966.114,2506.379 1941.735 C 2468.121 1913.198,2411.445 1851.351,2394.405 1819.544 C 2387.614 1806.869,2386.085 1797.000,2390.912 1797.000 C 2392.514 1797.000,2414.452 1803.022,2439.662 1810.383 M4651.421 1914.000 C 4666.584 1964.381,4660.328 2144.025,4640.817 2218.500 C 4629.372 2262.188,4585.065 2390.120,4582.348 2387.325 C 4580.929 2385.865,4592.601 2267.509,4597.223 2236.500 C 4599.682 2220.000,4607.202 2158.575,4613.933 2100.000 C 4627.972 1977.844,4637.505 1903.781,4640.040 1897.176 C 4642.584 1890.545,4645.787 1895.280,4651.421 1914.000 M2253.000 1981.259 C 2354.789 1993.807,2653.122 2063.725,2821.500 2114.493 C 2897.504 2137.410,2922.178 2143.606,2959.585 2149.169 C 2976.132 2151.630,2995.871 2156.301,3003.451 2159.550 C 3011.031 2162.799,3033.432 2169.001,3053.232 2173.332 C 3073.031 2177.663,3107.967 2186.575,3130.866 2193.138 C 3214.714 2217.166,3317.527 2235.961,3573.000 2273.963 C 3942.422 2328.916,4079.187 2356.369,4208.652 2401.557 C 4319.815 2440.358,4395.357 2481.622,4463.631 2540.837 C 4480.753 2555.687,4497.085 2568.575,4499.926 2569.476 C 4507.150 2571.769,4510.994 2581.604,4517.830 2615.280 C 4532.791 2688.972,4540.985 2789.263,4536.093 2838.792 C 4527.749 2923.274,4498.638 3026.525,4465.242 3090.092 C 4426.926 3163.022,4305.120 3285.549,4203.000 3353.886 C 4127.448 3404.444,4041.956 3440.797,3960.000 3457.214 C 3873.396 3474.563,3800.786 3478.955,3534.000 3482.983 C 3420.975 3484.690,3278.550 3487.368,3217.500 3488.934 L 3106.500 3491.781 2988.000 3512.944 C 2787.010 3548.840,2613.323 3585.211,2479.500 3619.426 C 2355.546 3651.118,2164.436 3698.374,2145.000 3702.137 C 2114.207 3708.100,2002.784 3710.766,1901.906 3707.953 C 1815.714 3705.549,1796.717 3704.111,1748.515 3696.338 C 1718.257 3691.458,1669.875 3683.885,1641.000 3679.508 C 1545.216 3664.990,1436.778 3637.991,1395.114 3618.286 C 1383.731 3612.903,1373.226 3609.833,1369.440 3610.783 C 1348.511 3616.036,1131.505 3541.729,1048.500 3500.888 C 982.860 3468.590,877.821 3400.436,805.500 3343.216 C 767.496 3313.148,696.895 3243.173,660.498 3199.500 C 601.749 3129.006,552.502 3025.997,542.787 2953.285 C 533.925 2886.957,552.298 2789.250,591.413 2694.695 C 621.481 2622.013,671.663 2531.856,711.798 2478.415 C 739.071 2442.099,807.247 2371.888,850.491 2335.581 C 1036.958 2179.025,1286.485 2061.253,1521.000 2019.113 C 1585.060 2007.602,1824.158 1982.780,1926.000 1977.069 C 1997.952 1973.033,2208.118 1975.726,2253.000 1981.259 M1698.000 2053.787 C 1692.225 2054.439,1674.675 2056.436,1659.000 2058.224 C 1621.258 2062.530,1533.695 2079.898,1492.500 2091.249 C 1351.898 2129.992,1105.063 2271.784,957.592 2398.523 C 894.663 2452.604,768.000 2600.953,768.000 2620.574 C 768.000 2637.680,788.577 2618.647,847.546 2547.000 C 910.017 2471.097,934.378 2444.479,955.500 2429.041 C 965.400 2421.805,1002.001 2394.838,1036.835 2369.114 C 1164.516 2274.825,1261.863 2217.279,1392.000 2159.159 C 1480.771 2119.514,1624.363 2080.129,1706.416 2072.920 C 1737.647 2070.176,1755.947 2063.747,1749.858 2057.658 C 1746.679 2054.479,1713.684 2052.016,1698.000 2053.787 M3761.347 2088.077 C 3774.081 2093.069,3787.776 2098.982,3791.780 2101.216 C 3798.754 2105.108,3798.187 2105.476,3778.280 2109.982 C 3766.851 2112.569,3742.671 2116.185,3724.546 2118.017 C 3690.815 2121.426,3677.997 2125.274,3675.565 2132.719 C 3674.017 2137.458,3685.339 2136.859,3753.000 2128.619 C 3773.625 2126.107,3802.122 2124.040,3816.327 2124.026 C 3845.561 2123.997,3852.376 2126.720,3901.297 2157.986 C 3916.035 2167.405,3932.235 2176.185,3937.297 2177.497 C 3949.038 2180.539,3949.144 2187.344,3937.500 2190.534 C 3924.803 2194.014,3879.786 2200.875,3822.348 2208.085 C 3764.355 2215.365,3733.225 2221.052,3712.564 2228.144 C 3692.301 2235.099,3638.028 2235.202,3615.000 2228.330 C 3592.538 2221.626,3571.805 2218.225,3508.500 2210.858 C 3422.961 2200.903,3265.559 2173.268,3218.250 2159.897 C 3207.580 2156.882,3202.703 2151.062,3210.750 2150.946 C 3247.055 2150.424,3344.777 2143.729,3385.959 2138.941 C 3501.285 2125.533,3633.658 2102.517,3685.500 2086.858 C 3718.603 2076.859,3733.337 2077.096,3761.347 2088.077 M4036.880 2231.754 C 4050.865 2238.104,4055.132 2243.068,4050.546 2247.654 C 4048.824 2249.376,4022.267 2252.438,3991.531 2254.459 C 3942.505 2257.682,3934.578 2258.923,3926.944 2264.567 C 3915.602 2272.952,3903.630 2272.772,3857.663 2263.522 C 3819.107 2255.763,3795.000 2248.276,3795.000 2244.060 C 3795.000 2236.835,3892.755 2227.435,3976.500 2226.607 C 4017.685 2226.199,4026.258 2226.930,4036.880 2231.754 M4105.810 2275.707 C 4115.184 2278.148,4135.823 2288.024,4151.676 2297.654 C 4167.529 2307.284,4188.736 2319.319,4198.803 2324.399 C 4220.053 2335.122,4236.000 2347.713,4236.000 2353.767 C 4236.000 2356.095,4234.941 2358.000,4233.648 2358.000 C 4232.354 2358.000,4209.067 2350.536,4181.898 2341.413 C 4087.250 2309.632,4036.487 2295.678,3979.730 2285.840 C 3945.824 2279.963,3935.470 2275.628,3948.316 2272.688 C 3973.067 2267.025,4080.374 2269.081,4105.810 2275.707 M1803.000 2272.966 C 1711.445 2281.740,1643.577 2301.087,1562.447 2341.539 C 1480.392 2382.452,1354.783 2483.112,1336.011 2523.000 C 1331.740 2532.075,1323.658 2545.800,1318.051 2553.499 C 1285.581 2598.089,1238.496 2734.180,1215.984 2848.500 C 1210.136 2878.200,1203.561 2905.973,1201.373 2910.218 C 1193.396 2925.698,1193.475 2925.690,1126.511 2917.394 C 1092.275 2913.152,1059.367 2910.091,1053.382 2910.591 C 1044.064 2911.369,1042.366 2912.665,1041.565 2919.602 C 1039.373 2938.594,1051.049 2946.333,1095.265 2955.197 C 1164.794 2969.136,1187.447 2983.270,1274.960 3067.316 C 1334.247 3124.255,1377.961 3161.224,1419.000 3189.131 C 1437.975 3202.035,1460.764 3218.815,1469.642 3226.422 C 1488.137 3242.267,1497.189 3247.396,1512.000 3250.423 C 1517.775 3251.604,1543.425 3262.494,1569.000 3274.624 C 1623.122 3300.292,1671.639 3319.383,1716.140 3332.522 C 1806.958 3359.334,1924.777 3380.383,2039.259 3390.249 C 2130.087 3398.076,2275.262 3376.903,2370.000 3342.011 C 2408.453 3327.848,2487.628 3286.071,2530.960 3257.077 C 2552.157 3242.894,2592.450 3213.490,2620.500 3191.735 C 2769.407 3076.247,2831.330 3034.102,2931.086 2980.352 C 2991.271 2947.923,3017.068 2930.772,3013.745 2925.397 C 3007.802 2915.780,2871.236 2955.369,2796.544 2988.362 C 2777.868 2996.611,2760.375 3002.934,2757.671 3002.414 C 2750.024 3000.941,2745.064 2978.726,2741.802 2931.340 C 2738.300 2880.454,2731.665 2848.431,2712.946 2792.055 C 2690.445 2724.292,2650.368 2652.314,2588.315 2568.217 C 2545.826 2510.634,2526.544 2490.224,2496.000 2470.501 C 2400.086 2408.567,2262.499 2337.665,2196.407 2316.113 C 2101.681 2285.224,1999.664 2270.680,1883.335 2271.480 C 1844.926 2271.744,1808.775 2272.413,1803.000 2272.966 M1995.000 2323.921 C 2070.130 2334.613,2145.410 2354.344,2211.250 2380.600 C 2233.939 2389.648,2256.665 2397.883,2261.751 2398.900 C 2272.797 2401.109,2273.016 2402.793,2264.250 2418.089 C 2259.056 2427.151,2258.241 2431.050,2260.714 2435.004 C 2264.965 2441.800,2278.369 2446.060,2287.941 2443.657 C 2294.668 2441.969,2295.474 2440.438,2294.415 2431.364 C 2293.353 2422.271,2294.029 2421.000,2299.921 2421.000 C 2309.512 2421.000,2355.885 2445.449,2379.976 2463.208 C 2391.238 2471.509,2402.713 2482.536,2405.476 2487.712 C 2413.840 2503.378,2422.294 2510.186,2436.269 2512.510 C 2443.546 2513.720,2452.875 2516.468,2457.000 2518.617 C 2471.341 2526.088,2499.693 2554.161,2538.115 2598.932 C 2576.825 2644.039,2598.000 2677.017,2598.000 2692.198 C 2598.000 2697.301,2591.193 2708.617,2578.413 2724.759 C 2554.966 2754.376,2544.000 2775.250,2544.000 2790.268 C 2544.000 2803.508,2548.492 2806.044,2567.021 2803.265 C 2577.284 2801.726,2580.000 2802.235,2580.000 2805.694 C 2580.000 2814.598,2568.516 2820.638,2547.120 2822.987 C 2516.658 2826.331,2516.002 2827.238,2517.626 2863.768 C 2519.569 2907.437,2529.375 2921.851,2557.215 2921.956 L 2568.930 2922.000 2563.215 2928.436 C 2560.072 2931.975,2551.826 2937.410,2544.890 2940.514 C 2527.061 2948.492,2511.554 2944.024,2485.131 2923.293 C 2451.986 2897.289,2449.976 2896.508,2434.933 2903.790 C 2427.956 2907.168,2417.037 2914.704,2410.668 2920.537 L 2399.089 2931.144 2406.295 2938.905 C 2410.258 2943.174,2421.535 2952.880,2431.356 2960.475 L 2449.211 2974.283 2422.584 2979.638 C 2385.675 2987.062,2376.105 2994.058,2380.253 3010.583 C 2383.675 3024.218,2391.900 3029.312,2413.983 3031.474 C 2440.206 3034.041,2445.000 3035.451,2445.000 3040.597 C 2445.000 3047.004,2434.223 3051.408,2411.585 3054.251 C 2387.523 3057.272,2375.729 3062.609,2360.172 3077.516 C 2350.900 3086.400,2347.904 3087.772,2343.672 3085.076 C 2339.541 3082.445,2338.500 3077.326,2338.500 3059.641 C 2338.500 3041.484,2337.285 3035.797,2331.750 3028.037 C 2322.967 3015.723,2323.233 3012.000,2332.896 3012.000 C 2345.104 3012.000,2359.421 3001.404,2367.313 2986.528 C 2376.536 2969.142,2374.173 2965.297,2347.563 2954.391 C 2323.604 2944.572,2321.640 2945.350,2311.263 2968.775 C 2302.649 2988.219,2289.024 3000.000,2275.151 3000.000 C 2266.991 3000.000,2262.239 3002.575,2253.000 3012.000 C 2240.024 3025.238,2236.502 3026.219,2226.668 3019.330 C 2218.758 3013.790,2217.657 2999.158,2224.715 2993.368 C 2238.857 2981.766,2241.000 2978.467,2241.000 2968.303 C 2241.000 2962.419,2239.634 2955.052,2237.964 2951.932 C 2234.109 2944.729,2216.781 2941.300,2207.996 2946.002 C 2201.310 2949.580,2200.972 2956.171,2206.714 2971.019 C 2208.678 2976.097,2207.555 2976.378,2192.674 2974.545 C 2178.610 2972.813,2175.595 2973.402,2169.566 2979.064 C 2160.762 2987.333,2156.293 2998.983,2158.794 3007.146 C 2159.865 3010.641,2165.300 3017.732,2170.871 3022.905 C 2177.029 3028.622,2181.000 3035.173,2181.000 3039.615 C 2181.000 3054.792,2143.242 3087.421,2131.080 3082.754 C 2124.982 3080.414,2131.337 3069.000,2138.738 3069.000 C 2154.388 3069.000,2154.185 3044.737,2138.423 3031.475 C 2125.802 3020.855,2116.935 3023.346,2100.480 3042.134 C 2081.556 3063.740,2066.531 3061.184,2056.391 3034.631 C 2050.177 3018.360,2052.136 3000.744,2062.676 2978.104 C 2076.847 2947.668,2070.247 2940.624,2041.036 2955.004 C 2021.659 2964.544,2010.000 2975.845,2010.000 2985.089 C 2010.000 2987.992,2012.762 2999.310,2016.138 3010.240 C 2019.513 3021.169,2023.471 3040.549,2024.932 3053.306 C 2028.313 3082.831,2029.912 3086.693,2039.581 3088.676 C 2064.210 3093.729,2065.539 3094.500,2064.596 3103.186 C 2064.099 3107.767,2065.277 3113.424,2067.213 3115.757 C 2071.992 3121.515,2092.263 3121.207,2097.164 3115.302 C 2099.309 3112.718,2104.738 3108.704,2109.230 3106.381 C 2121.684 3099.941,2124.908 3105.999,2123.532 3133.253 C 2122.912 3145.542,2121.607 3156.393,2120.634 3157.366 C 2119.660 3158.340,2109.557 3154.943,2098.182 3149.818 C 2068.323 3136.365,2057.764 3137.009,2029.165 3154.030 C 1994.713 3174.532,1990.800 3173.076,2009.577 3146.738 C 2037.997 3106.878,2037.760 3097.463,2008.193 3091.559 C 1979.897 3085.909,1971.211 3066.250,1992.213 3055.390 C 2002.521 3050.060,2003.194 3044.135,1995.016 3030.723 C 1986.653 3017.006,1972.255 3009.025,1955.850 3009.011 C 1940.721 3008.999,1935.000 3005.174,1935.000 2995.070 C 1935.000 2984.534,1924.088 2978.987,1903.582 2979.098 C 1880.614 2979.222,1861.718 2985.800,1827.356 3005.631 C 1812.296 3014.323,1797.617 3020.984,1794.737 3020.433 C 1790.940 3019.707,1789.053 3015.553,1787.874 3005.323 C 1785.853 2987.787,1779.124 2980.193,1747.315 2959.555 C 1734.013 2950.925,1720.494 2940.246,1717.274 2935.825 C 1714.053 2931.404,1705.362 2925.705,1697.959 2923.161 C 1681.103 2917.368,1675.790 2912.592,1667.769 2896.022 C 1660.345 2880.687,1648.917 2871.268,1619.180 2855.973 C 1607.383 2849.906,1595.160 2841.498,1592.018 2837.290 C 1586.480 2829.873,1586.468 2829.147,1591.627 2813.569 C 1595.134 2802.977,1600.876 2793.899,1608.474 2786.934 C 1614.813 2781.123,1620.000 2774.715,1620.000 2772.693 C 1620.000 2764.394,1598.209 2745.516,1577.339 2735.735 C 1549.742 2722.802,1532.982 2722.392,1507.627 2734.033 C 1473.779 2749.573,1463.391 2761.962,1474.714 2773.286 C 1481.893 2780.464,1491.849 2778.956,1503.000 2769.000 C 1508.544 2764.050,1516.017 2760.000,1519.605 2760.000 C 1527.073 2760.000,1553.194 2786.128,1561.768 2802.174 C 1570.002 2817.585,1569.332 2849.040,1560.187 2876.297 C 1551.180 2903.146,1553.293 2913.978,1567.817 2915.404 C 1575.601 2916.168,1578.756 2914.195,1588.213 2902.654 C 1607.080 2879.629,1624.463 2884.824,1634.754 2916.563 C 1639.556 2931.369,1649.085 2943.000,1656.415 2943.000 C 1666.350 2943.000,1674.000 2948.779,1674.000 2956.285 C 1674.000 2965.909,1666.563 2968.023,1653.878 2962.004 C 1643.348 2957.007,1626.000 2936.606,1626.000 2929.220 C 1626.000 2923.876,1614.085 2916.000,1606.000 2916.000 C 1602.334 2916.000,1595.827 2919.038,1591.541 2922.750 C 1584.852 2928.543,1583.254 2933.427,1580.274 2957.193 C 1576.003 2991.256,1578.469 3001.091,1591.603 3002.388 C 1598.342 3003.053,1603.716 3000.607,1613.026 2992.638 C 1619.861 2986.787,1626.252 2982.000,1627.227 2982.000 C 1630.729 2982.000,1628.912 3003.468,1624.725 3011.565 C 1619.254 3022.145,1608.434 3027.000,1590.324 3027.000 C 1580.216 3027.000,1574.459 3025.375,1570.990 3021.541 C 1565.145 3015.083,1560.000 2990.372,1560.000 2968.758 C 1560.000 2951.817,1553.932 2940.000,1545.233 2940.000 C 1536.080 2940.000,1497.089 2961.075,1492.070 2968.735 C 1489.058 2973.332,1488.051 2978.794,1489.298 2983.765 C 1492.084 2994.864,1486.454 3000.000,1471.500 3000.000 C 1456.334 3000.000,1449.957 2994.423,1454.792 2985.389 C 1462.774 2970.474,1453.791 2943.859,1435.756 2928.993 C 1429.696 2923.998,1416.970 2917.751,1407.475 2915.111 C 1389.551 2910.128,1377.823 2900.950,1381.590 2894.854 C 1382.788 2892.916,1390.838 2888.203,1399.480 2884.382 C 1415.793 2877.167,1419.046 2873.008,1418.933 2859.505 C 1418.793 2842.723,1404.627 2832.900,1374.443 2828.657 C 1363.474 2827.115,1345.926 2821.729,1335.446 2816.689 C 1313.237 2806.007,1306.813 2807.187,1288.732 2825.268 C 1271.078 2842.922,1273.642 2846.501,1306.592 2850.196 C 1344.505 2854.447,1365.000 2869.627,1365.000 2893.454 C 1365.000 2902.678,1367.380 2909.385,1373.795 2918.241 C 1384.578 2933.127,1400.981 2946.000,1409.166 2946.000 C 1418.910 2946.000,1423.417 2954.464,1422.345 2970.750 C 1421.776 2979.397,1408.016 2977.379,1401.888 2967.750 C 1393.546 2954.641,1391.074 2954.459,1381.133 2966.226 C 1372.752 2976.147,1371.017 2976.960,1364.633 2973.956 C 1360.710 2972.111,1345.999 2960.003,1331.942 2947.050 C 1317.885 2934.098,1300.335 2918.464,1292.942 2912.309 C 1280.548 2901.990,1280.085 2901.123,1287.000 2901.189 C 1291.125 2901.229,1300.361 2902.394,1307.524 2903.778 C 1314.688 2905.162,1323.140 2905.617,1326.307 2904.789 C 1334.343 2902.687,1336.720 2890.572,1330.853 2881.618 C 1322.416 2868.741,1309.227 2868.794,1263.272 2881.890 L 1256.044 2883.950 1257.905 2864.016 C 1260.047 2841.078,1274.520 2795.506,1285.747 2776.349 C 1296.951 2757.231,1312.035 2745.000,1324.409 2745.000 C 1337.529 2745.000,1348.588 2749.278,1359.755 2758.675 C 1367.433 2765.136,1371.250 2766.086,1387.166 2765.498 C 1397.336 2765.123,1407.221 2765.783,1409.134 2766.965 C 1411.047 2768.147,1415.502 2776.851,1419.035 2786.307 C 1427.084 2807.852,1436.986 2821.024,1448.817 2825.924 C 1460.273 2830.670,1460.301 2832.953,1449.000 2841.000 C 1438.318 2848.606,1437.276 2858.605,1446.312 2866.783 C 1451.185 2871.192,1457.171 2872.496,1472.562 2872.498 C 1488.284 2872.499,1492.500 2873.452,1492.500 2877.000 C 1492.500 2879.475,1488.128 2883.424,1482.785 2885.776 C 1471.588 2890.705,1468.657 2897.078,1472.700 2907.710 C 1480.183 2927.392,1509.997 2935.424,1519.836 2920.408 C 1523.938 2914.147,1524.455 2908.436,1522.782 2887.820 C 1520.540 2860.192,1523.236 2850.156,1534.962 2842.473 C 1543.157 2837.103,1544.044 2827.253,1537.210 2817.497 C 1530.318 2807.657,1523.717 2810.307,1508.559 2829.000 C 1501.200 2838.075,1492.552 2845.861,1489.340 2846.303 C 1479.478 2847.659,1466.975 2834.674,1461.084 2816.955 C 1457.687 2806.738,1453.223 2799.377,1449.307 2797.539 C 1441.834 2794.030,1441.353 2786.423,1447.500 2769.000 C 1454.292 2749.748,1453.583 2744.488,1444.500 2746.768 C 1432.623 2749.749,1435.266 2742.444,1452.310 2725.186 C 1463.951 2713.398,1467.163 2708.238,1465.708 2703.657 C 1462.734 2694.285,1414.678 2649.737,1399.684 2642.452 C 1388.488 2637.013,1384.976 2636.504,1378.623 2639.398 C 1360.728 2647.552,1374.738 2675.452,1399.911 2681.791 C 1423.234 2687.663,1440.000 2698.480,1440.000 2707.654 C 1440.000 2713.052,1410.773 2729.935,1401.364 2729.972 C 1397.342 2729.988,1388.959 2725.241,1382.157 2719.095 C 1375.518 2713.097,1358.817 2702.984,1345.043 2696.620 C 1325.399 2687.545,1320.000 2683.706,1320.000 2678.817 C 1320.000 2669.792,1336.759 2631.040,1345.220 2620.500 C 1353.123 2610.655,1349.968 2610.457,1380.076 2622.687 C 1389.492 2626.511,1397.847 2623.959,1400.333 2616.500 C 1400.988 2614.536,1395.331 2606.648,1387.762 2598.970 C 1380.193 2591.293,1374.000 2582.668,1374.000 2579.803 C 1374.000 2570.712,1401.074 2537.848,1444.458 2494.278 C 1494.892 2443.628,1532.542 2417.285,1602.106 2383.975 C 1666.340 2353.216,1681.816 2347.597,1726.500 2338.804 C 1835.932 2317.271,1916.784 2312.789,1995.000 2323.921 M1774.500 2357.052 C 1766.945 2359.026,1758.000 2366.826,1758.000 2371.442 C 1758.000 2373.374,1761.260 2378.017,1765.245 2381.760 C 1773.270 2389.299,1779.353 2388.642,1796.250 2378.413 C 1806.676 2372.101,1808.462 2366.778,1801.964 2361.385 C 1796.967 2357.238,1782.518 2354.958,1774.500 2357.052 M1910.773 2366.765 C 1897.863 2379.675,1901.480 2386.321,1919.677 2383.126 C 1941.113 2379.363,1955.564 2380.279,1961.033 2385.747 C 1965.122 2389.836,1965.312 2391.509,1962.125 2395.349 C 1960.002 2397.907,1955.087 2400.000,1951.202 2400.000 C 1941.096 2400.000,1933.132 2412.983,1936.815 2423.453 C 1941.482 2436.725,1948.602 2434.841,1969.452 2414.820 C 1998.007 2387.400,1998.025 2383.022,1969.647 2366.745 C 1957.721 2359.904,1950.783 2358.050,1937.019 2358.028 C 1921.681 2358.003,1918.464 2359.074,1910.773 2366.765 M2042.694 2373.869 C 2037.087 2377.648,2032.500 2382.667,2032.500 2385.024 C 2032.500 2391.089,2054.652 2402.892,2066.144 2402.951 C 2072.644 2402.984,2076.802 2401.108,2078.894 2397.197 C 2083.088 2389.362,2082.821 2375.021,2078.400 2370.600 C 2072.479 2364.679,2053.793 2366.390,2042.694 2373.869 M1821.000 2385.797 C 1811.792 2389.567,1804.500 2394.458,1804.500 2396.863 C 1804.500 2399.501,1812.829 2404.116,1825.976 2408.762 C 1843.099 2414.813,1849.179 2415.744,1855.976 2413.353 C 1863.798 2410.602,1864.500 2409.126,1864.500 2395.428 L 1864.500 2380.500 1851.000 2379.771 C 1842.422 2379.307,1831.485 2381.504,1821.000 2385.797 M2119.274 2382.365 C 2118.130 2384.216,2121.347 2394.679,2126.422 2405.615 C 2131.497 2416.552,2136.429 2429.213,2137.382 2433.750 C 2138.956 2441.246,2140.327 2442.000,2152.390 2442.000 C 2177.448 2442.000,2189.832 2421.426,2176.771 2401.492 C 2166.962 2386.522,2125.276 2372.654,2119.274 2382.365 M1605.428 2435.880 C 1596.478 2451.805,1584.646 2460.823,1575.099 2458.998 C 1546.524 2453.535,1553.790 2492.755,1583.655 2505.182 C 1591.493 2508.444,1604.985 2502.127,1605.017 2495.181 C 1605.068 2483.851,1612.050 2468.393,1618.427 2465.487 C 1622.313 2463.717,1626.174 2459.659,1627.008 2456.470 C 1629.016 2448.791,1620.436 2424.000,1615.770 2424.000 C 1613.754 2424.000,1609.100 2429.346,1605.428 2435.880 M1679.000 2426.000 C 1670.791 2434.209,1684.888 2454.000,1698.943 2454.000 C 1706.700 2454.000,1708.297 2451.679,1707.201 2442.000 C 1706.023 2431.594,1685.213 2419.787,1679.000 2426.000 M1848.000 2430.883 C 1843.053 2433.385,1840.500 2437.196,1840.500 2442.076 C 1840.500 2447.970,1842.788 2450.223,1851.754 2453.161 C 1866.489 2457.988,1878.000 2453.987,1878.000 2444.039 C 1878.000 2429.756,1863.123 2423.232,1848.000 2430.883 M803.708 2464.090 C 774.241 2489.420,709.664 2555.956,692.666 2578.500 C 685.202 2588.400,674.112 2604.796,668.021 2614.937 C 649.077 2646.473,607.133 2748.936,600.591 2779.656 C 594.988 2805.962,593.120 2850.361,596.656 2873.126 C 605.753 2931.680,618.680 2918.992,623.832 2846.454 C 627.372 2796.602,635.764 2759.778,653.944 2714.317 C 677.614 2655.128,704.371 2613.601,773.048 2529.467 C 820.111 2471.812,834.726 2451.601,832.250 2447.596 C 829.365 2442.928,826.194 2444.761,803.708 2464.090 M2008.924 2448.816 C 2000.981 2454.628,2003.695 2464.285,2013.594 2465.432 C 2022.310 2466.441,2035.252 2456.299,2033.206 2450.063 C 2031.507 2444.881,2015.429 2444.056,2008.924 2448.816 M1774.395 2463.171 C 1770.754 2469.062,1775.821 2480.012,1790.943 2498.929 C 1799.225 2509.289,1806.000 2518.943,1806.000 2520.382 C 1806.000 2521.822,1803.171 2523.000,1799.713 2523.000 C 1791.342 2523.000,1776.390 2532.047,1774.400 2538.315 C 1772.372 2544.704,1759.212 2559.000,1755.358 2559.000 C 1750.028 2559.000,1743.000 2549.683,1743.000 2542.618 C 1743.000 2538.794,1740.493 2532.568,1737.428 2528.784 L 1731.857 2521.903 1726.395 2530.239 C 1716.687 2545.055,1720.487 2604.000,1731.150 2604.000 C 1735.516 2604.000,1743.000 2594.685,1743.000 2589.251 C 1743.000 2580.779,1752.313 2574.688,1768.500 2572.574 C 1797.062 2568.842,1801.068 2567.241,1815.405 2553.831 C 1823.326 2546.422,1834.913 2538.613,1841.154 2536.480 C 1860.855 2529.743,1857.504 2511.977,1831.654 2486.127 C 1811.072 2465.546,1780.502 2453.289,1774.395 2463.171 M1932.137 2464.335 C 1930.158 2466.719,1928.981 2471.782,1929.520 2475.585 C 1930.330 2481.301,1932.320 2482.500,1941.000 2482.500 C 1949.680 2482.500,1951.670 2481.301,1952.480 2475.585 C 1953.654 2467.306,1948.272 2460.000,1941.000 2460.000 C 1938.104 2460.000,1934.116 2461.951,1932.137 2464.335 M2270.298 2470.702 C 2269.361 2471.639,2269.900 2477.131,2271.495 2482.907 C 2275.677 2498.052,2271.584 2501.184,2244.582 2503.498 C 2212.790 2506.222,2211.199 2506.923,2204.789 2521.040 C 2198.293 2535.347,2197.498 2547.542,2202.449 2556.947 C 2212.851 2576.709,2229.310 2569.232,2231.886 2543.575 L 2233.500 2527.500 2247.678 2528.393 C 2258.548 2529.077,2263.946 2527.741,2270.810 2522.666 L 2279.764 2516.046 2291.132 2523.483 C 2306.875 2533.782,2312.517 2535.470,2319.217 2531.884 C 2330.664 2525.758,2325.920 2508.551,2307.395 2489.003 C 2292.392 2473.171,2275.943 2465.057,2270.298 2470.702 M2017.500 2494.526 C 1989.909 2506.542,1972.759 2517.863,1963.783 2529.984 C 1957.621 2538.304,1957.611 2538.549,1963.235 2542.670 C 1971.037 2548.385,1980.291 2545.746,2006.654 2530.289 C 2018.838 2523.145,2033.013 2516.446,2038.154 2515.403 C 2066.123 2509.729,2070.000 2507.926,2070.000 2500.599 C 2070.000 2481.545,2052.069 2479.470,2017.500 2494.526 M1703.000 2492.000 C 1697.258 2497.742,1709.469 2511.000,1720.500 2511.000 C 1730.364 2511.000,1730.177 2504.148,1720.095 2496.218 C 1711.978 2489.833,1706.515 2488.485,1703.000 2492.000 M2133.600 2493.600 C 2125.754 2501.446,2133.500 2520.000,2144.623 2520.000 C 2148.969 2520.000,2163.000 2506.525,2163.000 2502.351 C 2163.000 2492.280,2141.361 2485.839,2133.600 2493.600 M1656.600 2505.600 C 1650.932 2511.268,1652.360 2519.633,1660.364 2527.636 C 1672.741 2540.014,1686.000 2534.855,1686.000 2517.662 C 1686.000 2505.304,1665.363 2496.837,1656.600 2505.600 M1439.928 2518.586 C 1436.752 2522.413,1437.934 2525.804,1447.061 2539.056 C 1463.518 2562.951,1462.591 2565.212,1434.541 2569.580 C 1418.964 2572.006,1415.155 2578.631,1424.832 2586.467 C 1440.155 2598.875,1470.310 2587.233,1481.516 2564.583 C 1487.982 2551.514,1487.676 2547.000,1480.323 2547.000 C 1477.284 2547.000,1476.000 2543.458,1476.000 2535.077 C 1476.000 2524.908,1474.698 2522.481,1467.149 2518.577 C 1455.844 2512.731,1444.785 2512.735,1439.928 2518.586 M1519.714 2527.714 C 1514.137 2533.292,1514.089 2533.693,1518.106 2541.197 C 1523.165 2550.651,1539.000 2546.799,1539.000 2536.114 C 1539.000 2531.904,1530.853 2523.000,1527.000 2523.000 C 1525.586 2523.000,1522.307 2525.121,1519.714 2527.714 M2364.685 2526.691 C 2352.582 2532.524,2352.465 2552.985,2364.522 2555.364 C 2371.303 2556.702,2385.000 2544.340,2385.000 2536.882 C 2385.000 2529.732,2379.809 2522.871,2374.650 2523.203 C 2372.918 2523.315,2368.433 2524.884,2364.685 2526.691 M1571.421 2531.250 C 1564.445 2539.372,1563.077 2545.807,1566.091 2556.317 C 1575.320 2588.495,1618.890 2621.296,1631.778 2605.768 C 1637.217 2599.214,1639.529 2579.799,1635.190 2577.117 C 1633.158 2575.862,1625.481 2576.118,1618.129 2577.686 C 1600.292 2581.490,1597.168 2578.315,1595.252 2554.442 C 1594.391 2543.717,1592.017 2532.930,1589.976 2530.471 C 1585.006 2524.483,1576.942 2524.822,1571.421 2531.250 M2160.727 2530.482 C 2148.743 2535.691,2144.134 2546.678,2146.715 2563.890 C 2149.058 2579.513,2154.125 2584.750,2162.540 2580.246 C 2176.193 2572.939,2188.543 2539.589,2180.973 2530.467 C 2176.448 2525.016,2173.300 2525.018,2160.727 2530.482 M2078.272 2539.818 C 2067.699 2552.745,2063.039 2556.342,2054.703 2558.009 C 2042.318 2560.486,2035.018 2571.764,2039.472 2581.540 C 2046.748 2597.508,2068.341 2593.394,2071.717 2575.396 C 2073.000 2568.559,2077.287 2561.903,2083.939 2556.420 C 2090.692 2550.854,2093.563 2546.353,2092.361 2543.219 C 2089.683 2536.241,2082.597 2534.530,2078.272 2539.818 M1904.791 2551.751 C 1898.458 2559.383,1905.073 2566.500,1918.500 2566.500 C 1932.926 2566.500,1939.716 2558.037,1930.677 2551.324 C 1922.973 2545.603,1909.712 2545.822,1904.791 2551.751 M2268.912 2557.467 C 2265.139 2565.379,2264.575 2569.655,2266.832 2573.233 C 2271.801 2581.111,2276.306 2580.966,2284.609 2572.664 C 2295.213 2562.060,2294.001 2548.903,2282.294 2547.555 C 2275.422 2546.764,2273.248 2548.373,2268.912 2557.467 M2426.000 2549.000 C 2424.900 2550.100,2424.000 2554.220,2424.000 2558.156 C 2424.000 2563.410,2426.392 2566.146,2433.000 2568.450 C 2437.950 2570.175,2442.000 2572.129,2442.000 2572.792 C 2442.000 2573.455,2438.313 2580.601,2433.806 2588.673 C 2427.046 2600.781,2426.128 2604.794,2428.556 2611.613 C 2433.192 2624.628,2439.578 2627.003,2453.298 2620.816 C 2470.320 2613.141,2481.009 2602.245,2480.951 2592.629 C 2480.880 2581.057,2469.151 2561.851,2457.261 2553.839 C 2447.635 2547.352,2430.327 2544.673,2426.000 2549.000 M1833.018 2564.383 C 1824.220 2571.506,1826.688 2580.000,1837.555 2580.000 C 1849.060 2580.000,1863.551 2571.591,1862.412 2565.576 C 1860.975 2557.990,1841.870 2557.214,1833.018 2564.383 M2320.965 2564.486 C 2304.453 2582.732,2328.639 2637.000,2353.282 2637.000 C 2361.415 2637.000,2367.904 2623.257,2365.591 2610.929 C 2361.230 2587.686,2341.327 2559.000,2329.560 2559.000 C 2327.564 2559.000,2323.696 2561.469,2320.965 2564.486 M1966.396 2580.828 C 1959.225 2586.996,1957.745 2590.900,1956.606 2606.651 C 1955.018 2628.612,1960.573 2645.816,1973.999 2660.516 C 1980.658 2667.806,1985.104 2670.148,1990.959 2669.448 C 2010.537 2667.109,2006.097 2643.856,1984.024 2633.132 C 1976.861 2629.652,1971.010 2625.386,1971.023 2623.652 C 1971.036 2621.918,1976.428 2617.427,1983.006 2613.670 C 1989.584 2609.914,1997.214 2603.410,1999.962 2599.217 C 2004.751 2591.907,2004.659 2591.301,1997.728 2584.480 C 1986.504 2573.436,1976.365 2572.254,1966.396 2580.828 M1680.907 2583.191 C 1667.074 2588.435,1658.683 2622.968,1668.786 2633.071 C 1675.263 2639.548,1681.889 2634.865,1688.723 2618.979 C 1699.351 2594.273,1695.706 2577.580,1680.907 2583.191 M1849.819 2596.609 C 1844.932 2601.497,1846.145 2608.278,1853.421 2616.750 C 1858.818 2623.034,1863.008 2623.349,1870.294 2618.021 C 1877.655 2612.639,1874.127 2602.254,1862.979 2596.489 C 1855.354 2592.546,1853.869 2592.560,1849.819 2596.609 M2120.000 2594.000 C 2112.045 2601.955,2130.198 2649.754,2142.680 2653.716 C 2150.387 2656.162,2157.014 2648.493,2156.971 2637.177 C 2156.929 2626.263,2143.626 2599.081,2136.446 2595.239 C 2129.571 2591.559,2122.940 2591.060,2120.000 2594.000 M2167.714 2596.714 C 2161.550 2602.879,2161.679 2617.166,2167.947 2622.383 C 2170.668 2624.647,2182.470 2627.175,2194.172 2628.000 C 2213.770 2629.382,2215.760 2630.151,2219.388 2637.750 C 2225.912 2651.413,2250.000 2648.124,2250.000 2633.570 C 2250.000 2627.099,2238.918 2619.000,2230.062 2619.000 C 2226.431 2619.000,2217.171 2614.200,2209.484 2608.332 C 2187.692 2591.698,2175.986 2588.442,2167.714 2596.714 M1485.715 2619.485 C 1480.704 2624.496,1481.019 2637.532,1486.324 2644.677 C 1493.465 2654.292,1501.500 2646.877,1501.500 2630.673 C 1501.500 2619.761,1500.464 2617.352,1495.465 2616.635 C 1492.146 2616.159,1487.758 2617.442,1485.715 2619.485 M1798.523 2623.758 C 1788.338 2634.749,1788.468 2649.625,1798.858 2661.973 C 1805.984 2670.441,1806.576 2673.061,1805.209 2690.088 C 1803.251 2714.481,1792.418 2737.096,1782.000 2738.537 C 1765.841 2740.773,1761.850 2754.116,1773.943 2765.477 C 1785.001 2775.865,1797.699 2773.780,1836.000 2755.289 C 1873.210 2737.325,1887.000 2726.744,1887.000 2716.156 C 1887.000 2708.224,1875.323 2698.206,1862.894 2695.477 C 1851.059 2692.877,1848.562 2687.855,1856.488 2682.592 C 1865.738 2676.450,1864.586 2668.773,1852.391 2655.274 C 1846.556 2648.816,1838.694 2637.674,1834.920 2630.516 C 1828.961 2619.212,1826.610 2617.378,1817.052 2616.570 C 1808.254 2615.827,1804.538 2617.269,1798.523 2623.758 M1542.038 2630.276 C 1528.937 2636.857,1514.773 2659.477,1512.802 2676.964 C 1511.521 2688.331,1512.292 2690.865,1518.324 2695.089 C 1522.180 2697.790,1528.072 2699.979,1531.418 2699.954 C 1543.085 2699.866,1546.500 2695.006,1546.500 2678.487 C 1546.500 2663.346,1546.965 2662.459,1559.250 2654.188 C 1572.052 2645.569,1575.327 2637.397,1568.250 2631.735 C 1560.647 2625.652,1552.181 2625.181,1542.038 2630.276 M2505.000 2640.571 C 2505.000 2645.391,2521.173 2661.574,2531.053 2666.640 C 2546.523 2674.572,2561.383 2667.228,2553.911 2655.342 C 2546.326 2643.278,2505.000 2630.797,2505.000 2640.571 M1729.163 2647.564 C 1718.008 2658.719,1720.362 2668.239,1734.569 2669.420 C 1743.719 2670.181,1746.524 2668.989,1750.745 2662.547 C 1754.848 2656.285,1755.191 2653.305,1752.490 2647.377 C 1748.132 2637.813,1738.840 2637.887,1729.163 2647.564 M2314.790 2649.497 C 2305.443 2662.841,2312.043 2682.000,2325.986 2682.000 C 2334.470 2682.000,2343.000 2693.158,2343.000 2704.255 C 2343.000 2718.740,2340.527 2723.573,2330.451 2728.784 C 2315.017 2736.765,2323.835 2754.202,2341.112 2749.865 C 2349.519 2747.755,2359.197 2739.667,2361.739 2732.625 C 2363.296 2728.313,2363.511 2728.401,2380.251 2740.208 C 2388.227 2745.833,2388.460 2745.828,2396.422 2739.910 C 2402.162 2735.642,2404.772 2730.700,2405.438 2722.831 C 2406.217 2713.637,2404.771 2710.259,2396.911 2702.917 C 2391.705 2698.054,2382.317 2692.538,2376.049 2690.660 C 2360.100 2685.882,2349.165 2676.299,2340.135 2659.188 C 2331.169 2642.197,2322.283 2638.799,2314.790 2649.497 M2432.000 2651.000 C 2427.731 2655.269,2430.332 2667.047,2437.318 2675.083 C 2443.335 2682.003,2445.603 2682.913,2450.068 2680.197 C 2457.478 2675.692,2458.672 2661.820,2452.260 2654.735 C 2447.172 2649.113,2435.955 2647.045,2432.000 2651.000 M1669.500 2659.449 C 1651.409 2666.871,1630.152 2685.582,1633.555 2691.089 C 1639.119 2700.091,1669.896 2688.904,1687.216 2671.584 C 1705.794 2653.006,1698.083 2647.724,1669.500 2659.449 M1934.250 2655.240 C 1926.289 2659.877,1927.569 2672.477,1936.411 2676.505 C 1942.078 2679.087,1944.902 2678.986,1948.411 2676.074 C 1954.829 2670.747,1954.139 2658.821,1947.197 2655.106 C 1940.291 2651.410,1940.837 2651.404,1934.250 2655.240 M2059.326 2676.750 C 2056.953 2687.458,2054.938 2690.005,2046.748 2692.652 C 2031.104 2697.709,2029.076 2701.296,2034.926 2713.562 C 2041.765 2727.904,2047.571 2729.492,2057.697 2719.790 C 2066.429 2711.425,2079.000 2688.881,2079.000 2681.589 C 2079.000 2675.575,2070.383 2664.000,2065.906 2664.000 C 2063.842 2664.000,2060.881 2669.738,2059.326 2676.750 M1594.155 2679.647 C 1583.339 2687.953,1581.104 2691.081,1581.046 2697.995 C 1580.942 2710.426,1622.873 2751.000,1635.824 2751.000 C 1640.996 2751.000,1641.552 2749.566,1640.027 2740.164 C 1637.605 2725.242,1611.790 2673.000,1606.838 2673.000 C 1604.622 2673.000,1598.915 2675.991,1594.155 2679.647 M1981.500 2690.231 C 1971.600 2692.671,1960.405 2695.232,1956.622 2695.923 C 1947.599 2697.570,1945.207 2704.538,1950.351 2714.182 C 1957.432 2727.455,1989.628 2758.620,2008.500 2770.468 C 2029.704 2783.780,2035.887 2790.640,2040.011 2805.429 C 2043.742 2818.811,2041.439 2825.601,2031.946 2829.211 C 2021.210 2833.292,2015.999 2849.128,2016.005 2877.654 C 2016.008 2895.297,2017.530 2905.544,2021.255 2913.000 C 2026.113 2922.726,2027.495 2923.486,2040.000 2923.308 C 2054.509 2923.102,2075.562 2914.632,2078.118 2907.972 C 2078.979 2905.727,2076.126 2899.527,2071.777 2894.195 C 2055.904 2874.734,2048.473 2862.280,2050.640 2858.774 C 2056.313 2849.594,2113.358 2862.193,2131.799 2876.700 C 2147.500 2889.049,2169.921 2893.379,2218.500 2893.442 C 2254.484 2893.488,2266.656 2892.400,2279.250 2888.009 C 2288.565 2884.761,2295.000 2880.726,2295.000 2878.132 C 2295.000 2872.866,2260.643 2855.993,2250.000 2856.032 C 2245.875 2856.046,2235.278 2859.420,2226.452 2863.529 C 2205.666 2873.206,2196.591 2872.949,2181.844 2862.267 C 2164.759 2849.890,2155.939 2836.637,2158.362 2826.982 C 2163.092 2808.138,2140.368 2766.000,2125.477 2766.000 C 2115.380 2766.000,2103.553 2760.999,2093.353 2752.416 C 2082.292 2743.109,2078.677 2743.143,2064.248 2752.692 C 2053.438 2759.846,2036.273 2763.273,2032.110 2759.110 C 2031.117 2758.117,2029.397 2752.848,2028.287 2747.402 C 2026.436 2738.315,2025.168 2737.370,2012.885 2735.922 C 1989.596 2733.177,1984.518 2724.207,2002.094 2716.863 C 2013.378 2712.148,2018.185 2700.688,2012.967 2690.938 C 2009.341 2684.164,2006.394 2684.097,1981.500 2690.231 M2240.093 2690.344 C 2231.426 2699.922,2235.574 2712.000,2247.531 2712.000 C 2254.054 2712.000,2262.874 2699.282,2261.473 2691.898 C 2260.034 2684.316,2246.443 2683.328,2240.093 2690.344 M2528.000 2702.000 C 2524.358 2705.642,2525.926 2720.204,2530.356 2723.880 C 2536.835 2729.257,2545.363 2726.398,2546.491 2718.472 C 2548.044 2707.559,2534.503 2695.497,2528.000 2702.000 M2121.032 2710.461 C 2116.037 2716.480,2119.550 2729.013,2127.410 2733.219 C 2132.553 2735.972,2135.236 2735.503,2141.625 2730.738 C 2145.956 2727.507,2149.984 2722.396,2150.576 2719.380 C 2152.798 2708.061,2128.989 2700.874,2121.032 2710.461 M2443.190 2710.226 C 2440.051 2718.405,2444.052 2747.074,2450.042 2759.331 C 2454.794 2769.056,2456.858 2770.500,2466.000 2770.500 C 2475.652 2770.500,2476.576 2769.713,2477.440 2760.755 C 2478.539 2749.351,2466.740 2725.706,2453.731 2713.242 C 2446.154 2705.983,2444.950 2705.639,2443.190 2710.226 M1683.271 2726.177 C 1677.983 2730.459,1676.212 2735.745,1674.934 2751.057 C 1672.926 2775.104,1668.442 2782.686,1654.707 2785.263 C 1625.459 2790.750,1635.411 2830.611,1670.453 2848.331 C 1682.321 2854.333,1691.666 2853.509,1696.194 2846.062 C 1700.804 2838.479,1688.944 2829.070,1674.418 2828.788 L 1663.500 2828.576 1675.885 2823.066 C 1689.727 2816.908,1698.000 2807.094,1698.000 2796.832 C 1698.000 2785.733,1704.662 2788.938,1718.303 2806.600 C 1732.681 2825.217,1743.936 2832.270,1749.831 2826.358 C 1755.217 2820.958,1753.579 2793.879,1746.799 2776.218 C 1730.976 2735.001,1701.271 2711.602,1683.271 2726.177 M2193.677 2725.663 C 2182.859 2733.240,2177.125 2746.681,2181.632 2753.897 C 2193.224 2772.459,2211.285 2755.695,2207.510 2729.878 C 2206.216 2721.026,2202.092 2719.770,2193.677 2725.663 M1909.787 2744.683 C 1902.779 2752.427,1899.000 2767.589,1899.000 2787.965 C 1899.000 2804.446,1899.712 2806.175,1911.159 2817.509 C 1936.947 2843.040,1912.525 2842.998,1856.040 2817.413 C 1806.188 2794.834,1800.000 2793.627,1800.000 2806.481 C 1800.000 2814.610,1810.983 2823.731,1839.083 2838.937 C 1852.007 2845.931,1855.753 2849.927,1860.976 2862.291 C 1865.660 2873.376,1869.233 2877.626,1874.889 2878.840 C 1895.727 2883.311,1906.523 2887.891,1907.424 2892.643 C 1908.890 2900.375,1896.723 2902.500,1851.000 2902.500 C 1792.308 2902.500,1774.483 2897.342,1798.500 2887.307 C 1807.863 2883.394,1809.000 2881.697,1809.000 2871.627 C 1809.000 2854.809,1796.273 2837.938,1783.677 2838.060 C 1780.279 2838.092,1768.904 2844.842,1758.397 2853.060 C 1745.381 2863.239,1736.491 2868.000,1730.498 2868.000 C 1719.499 2868.000,1705.156 2875.235,1701.089 2882.834 C 1696.092 2892.170,1697.488 2899.474,1705.751 2907.227 C 1712.835 2913.873,1715.966 2914.500,1742.093 2914.500 C 1773.854 2914.500,1770.949 2912.843,1788.111 2940.756 C 1797.595 2956.183,1812.930 2967.583,1822.472 2966.302 C 1825.756 2965.861,1830.172 2961.883,1832.284 2957.462 C 1840.584 2940.088,1878.266 2938.520,1890.042 2955.059 C 1897.365 2965.343,1912.844 2969.407,1923.434 2963.825 C 1933.209 2958.674,1934.901 2955.350,1934.954 2941.198 C 1935.011 2926.023,1940.534 2909.345,1945.008 2910.836 C 1949.605 2912.368,1952.347 2923.600,1952.701 2942.346 C 1952.865 2951.062,1954.882 2962.698,1957.183 2968.204 C 1964.742 2986.294,1983.014 2993.587,1993.035 2982.514 C 1999.758 2975.085,1999.281 2966.090,1991.807 2959.325 C 1986.683 2954.688,1985.904 2951.370,1987.301 2940.110 C 1989.041 2926.076,1986.665 2917.655,1969.660 2877.592 C 1965.246 2867.193,1960.413 2851.184,1958.921 2842.017 C 1957.429 2832.850,1953.400 2820.589,1949.968 2814.771 C 1946.535 2808.954,1941.674 2795.344,1939.166 2784.528 C 1930.402 2746.737,1920.312 2733.053,1909.787 2744.683 M2244.370 2749.711 C 2237.750 2758.127,2233.954 2776.706,2235.510 2793.079 C 2236.484 2803.329,2236.745 2803.513,2251.500 2804.284 C 2274.330 2805.477,2278.547 2807.059,2293.568 2820.059 C 2311.066 2835.203,2322.217 2841.000,2333.851 2841.000 C 2341.657 2841.000,2343.000 2839.878,2343.000 2833.351 C 2343.000 2816.225,2330.221 2801.347,2311.152 2796.272 C 2297.694 2792.690,2285.031 2781.764,2277.879 2767.562 C 2272.102 2756.092,2259.025 2742.000,2254.156 2742.000 C 2252.110 2742.000,2247.706 2745.470,2244.370 2749.711 M2603.919 2761.351 C 2607.045 2766.993,2612.441 2771.140,2618.803 2772.788 C 2638.051 2777.776,2651.468 2791.780,2656.185 2811.803 C 2657.838 2818.821,2656.040 2822.352,2644.570 2834.614 C 2637.107 2842.594,2631.009 2851.007,2631.019 2853.311 C 2631.029 2855.615,2635.079 2859.800,2640.019 2862.610 C 2649.405 2867.951,2651.640 2874.967,2645.250 2879.032 C 2643.188 2880.344,2630.923 2882.217,2617.995 2883.194 C 2595.118 2884.923,2587.825 2888.447,2590.844 2896.314 C 2591.553 2898.161,2590.273 2902.215,2588.000 2905.324 C 2582.843 2912.376,2574.921 2909.813,2571.140 2899.868 C 2567.746 2890.941,2563.770 2888.343,2550.102 2886.122 C 2527.083 2882.380,2540.816 2866.473,2579.987 2851.505 C 2602.341 2842.963,2616.000 2833.911,2616.000 2827.638 C 2616.000 2825.479,2611.415 2820.215,2605.811 2815.940 C 2599.286 2810.964,2593.891 2803.091,2590.811 2794.050 C 2585.870 2779.549,2584.363 2756.637,2588.104 2752.896 C 2592.135 2748.865,2599.048 2752.561,2603.919 2761.351 M2403.460 2766.740 C 2398.737 2771.463,2399.099 2794.063,2404.086 2805.846 C 2406.333 2811.156,2411.058 2818.072,2414.586 2821.215 C 2422.456 2828.227,2422.723 2833.437,2415.476 2838.580 C 2408.183 2843.756,2402.142 2855.436,2404.108 2860.560 C 2404.971 2862.810,2409.125 2866.909,2413.339 2869.670 C 2420.447 2874.328,2421.541 2874.335,2428.500 2869.776 C 2434.621 2865.765,2436.000 2862.432,2436.000 2851.645 C 2436.000 2843.466,2437.851 2836.578,2440.857 2833.572 C 2445.332 2829.097,2446.156 2829.116,2451.357 2833.823 C 2454.460 2836.632,2457.000 2841.999,2457.000 2845.751 C 2457.000 2859.408,2472.726 2867.844,2486.202 2861.415 C 2506.307 2851.823,2489.178 2825.334,2456.617 2815.664 C 2436.780 2809.773,2428.474 2801.988,2422.347 2783.541 C 2417.141 2767.864,2409.305 2760.895,2403.460 2766.740 M1335.776 2779.809 C 1337.526 2795.331,1343.929 2803.821,1351.651 2800.857 C 1362.112 2796.843,1350.604 2766.000,1338.645 2766.000 C 1335.160 2766.000,1334.550 2768.935,1335.776 2779.809 M2358.600 2769.600 C 2350.955 2777.245,2356.922 2796.000,2367.000 2796.000 C 2378.293 2796.000,2380.304 2782.339,2370.644 2771.250 C 2365.238 2765.044,2363.406 2764.794,2358.600 2769.600 M4786.223 2872.246 C 4819.070 2874.831,4846.543 2877.543,4847.273 2878.273 C 4850.268 2881.268,4844.075 2886.011,4833.623 2888.727 C 4827.506 2890.317,4807.209 2893.101,4788.520 2894.915 C 4740.220 2899.603,4712.592 2905.384,4664.534 2920.859 C 4641.371 2928.317,4621.770 2933.770,4620.976 2932.976 C 4620.182 2932.182,4618.778 2916.225,4617.854 2897.516 L 4616.176 2863.500 4671.338 2865.523 C 4701.677 2866.636,4753.375 2869.661,4786.223 2872.246 M2331.000 2880.169 C 2309.478 2891.920,2277.409 2918.023,2268.803 2930.793 C 2260.114 2943.686,2259.978 2956.244,2268.464 2962.187 C 2276.313 2967.685,2281.841 2965.312,2300.183 2948.574 C 2311.884 2937.896,2314.229 2937.000,2330.483 2937.000 C 2345.245 2937.000,2350.087 2935.560,2360.362 2928.117 C 2377.099 2915.993,2388.625 2898.774,2384.795 2891.618 C 2381.499 2885.458,2358.160 2870.959,2351.736 2871.080 C 2349.406 2871.124,2340.075 2875.214,2331.000 2880.169 M2107.829 2907.750 C 2107.121 2911.463,2105.099 2923.275,2103.334 2934.000 C 2099.484 2957.387,2081.359 2995.847,2072.924 2998.524 C 2061.354 3002.196,2068.153 3028.669,2081.528 3032.026 C 2089.204 3033.953,2092.730 3030.989,2106.903 3010.700 C 2109.875 3006.446,2117.655 3000.237,2124.193 2996.901 C 2130.731 2993.566,2140.276 2985.136,2145.404 2978.169 C 2157.944 2961.131,2171.995 2931.302,2171.998 2921.712 C 2172.000 2914.610,2170.044 2913.356,2149.759 2907.462 C 2120.134 2898.855,2109.509 2898.928,2107.829 2907.750 M1270.896 2944.714 C 1282.228 2956.730,1284.210 2970.082,1276.330 2981.332 C 1269.223 2991.479,1260.997 2989.715,1254.311 2976.610 C 1247.553 2963.362,1243.585 2945.014,1246.076 2938.523 C 1249.063 2930.739,1260.378 2933.561,1270.896 2944.714 M2610.168 2945.533 C 2614.622 2949.139,2616.322 2952.833,2615.052 2956.143 C 2613.438 2960.349,2610.591 2960.887,2598.460 2959.278 C 2584.511 2957.428,2583.725 2957.705,2581.861 2965.130 C 2579.138 2975.978,2567.846 2982.586,2553.979 2981.445 C 2537.752 2980.109,2538.047 2970.967,2554.500 2965.334 C 2561.100 2963.074,2568.862 2958.137,2571.749 2954.363 C 2574.636 2950.588,2578.402 2945.813,2580.117 2943.750 C 2584.758 2938.171,2602.366 2939.215,2610.168 2945.533 M2683.442 2969.580 C 2685.469 2984.318,2681.097 3017.103,2676.491 3021.709 C 2672.595 3025.605,2665.145 3021.400,2661.406 3013.194 C 2654.497 2998.029,2658.414 2958.719,2668.058 2946.442 C 2673.026 2940.118,2681.050 2952.187,2683.442 2969.580 M2493.418 2985.213 C 2506.321 2991.796,2532.000 3013.921,2532.000 3018.456 C 2532.000 3019.937,2528.454 3022.497,2524.119 3024.145 C 2517.097 3026.815,2516.443 3028.278,2518.119 3037.571 C 2519.154 3043.307,2520.852 3052.725,2521.893 3058.500 C 2523.078 3065.078,2522.599 3069.000,2520.610 3069.000 C 2514.403 3069.000,2505.276 3053.367,2503.409 3039.539 C 2500.269 3016.278,2496.476 3007.682,2483.953 2995.454 C 2477.379 2989.035,2472.000 2982.706,2472.000 2981.391 C 2472.000 2977.219,2480.839 2978.796,2493.418 2985.213 M1724.902 3001.382 C 1726.903 3003.793,1729.201 3011.555,1730.010 3018.632 C 1732.242 3038.157,1736.659 3047.131,1745.927 3050.970 C 1753.106 3053.943,1757.302 3053.270,1774.527 3046.378 C 1796.852 3037.447,1799.808 3038.505,1800.021 3055.500 C 1800.164 3066.982,1807.301 3075.784,1822.701 3083.471 C 1838.207 3091.211,1841.856 3095.728,1844.119 3109.982 C 1846.763 3126.630,1854.461 3143.233,1870.181 3166.195 C 1877.782 3177.296,1884.000 3187.644,1884.000 3189.190 C 1884.000 3194.809,1868.545 3191.818,1861.578 3184.851 C 1857.646 3180.919,1849.641 3168.193,1843.788 3156.573 C 1828.913 3127.035,1826.432 3125.725,1789.633 3127.976 C 1763.998 3129.545,1758.811 3129.092,1755.407 3124.990 C 1751.914 3120.782,1752.777 3119.339,1762.064 3113.860 C 1775.640 3105.850,1777.820 3098.710,1770.970 3084.694 C 1765.615 3073.735,1765.154 3073.505,1749.000 3073.726 C 1739.925 3073.850,1725.750 3074.525,1717.500 3075.226 C 1703.064 3076.452,1702.531 3076.224,1703.321 3069.149 C 1703.851 3064.403,1701.459 3059.310,1696.571 3054.778 C 1688.279 3047.089,1687.166 3038.224,1692.212 3020.055 C 1697.763 3000.063,1715.432 2989.971,1724.902 3001.382 M2601.000 3025.981 C 2601.000 3039.062,2594.783 3051.125,2582.877 3061.144 C 2569.728 3072.207,2560.098 3073.956,2548.048 3067.466 C 2535.471 3060.693,2535.241 3057.000,2547.396 3057.000 C 2558.977 3057.000,2574.769 3041.473,2580.145 3024.801 C 2582.150 3018.585,2585.147 3010.881,2586.806 3007.680 C 2589.731 3002.033,2589.988 3002.066,2595.411 3008.762 C 2598.485 3012.559,2601.000 3020.307,2601.000 3025.981 M4408.005 3028.211 C 4401.677 3035.478,4389.131 3053.365,4380.126 3067.961 C 4352.695 3112.419,4332.437 3137.690,4290.069 3180.303 C 4246.219 3224.405,4200.401 3262.134,4159.881 3287.505 C 4105.357 3321.645,3951.831 3380.145,3877.532 3395.092 C 3864.575 3397.699,3860.565 3404.746,3867.372 3412.948 C 3872.070 3418.609,3885.585 3417.250,3936.000 3406.049 C 4035.355 3383.973,4103.345 3357.119,4177.104 3310.819 C 4193.902 3300.274,4212.927 3289.440,4219.382 3286.743 C 4232.129 3281.417,4282.065 3232.807,4321.334 3187.500 C 4377.878 3122.260,4420.757 3056.126,4426.855 3024.750 C 4429.604 3010.608,4422.141 3011.978,4408.005 3028.211 M1546.286 3022.714 C 1548.879 3025.307,1551.005 3030.370,1551.011 3033.964 C 1551.043 3052.432,1576.533 3073.975,1594.614 3070.815 C 1628.665 3064.865,1625.372 3064.363,1637.765 3077.391 C 1655.597 3096.137,1666.280 3135.000,1653.600 3135.000 C 1645.959 3135.000,1641.000 3129.097,1641.000 3120.000 C 1641.000 3108.061,1635.650 3105.000,1614.780 3105.000 C 1594.642 3105.000,1580.423 3099.674,1564.151 3086.037 C 1536.163 3062.581,1522.573 3058.383,1509.000 3069.000 C 1504.875 3072.227,1498.566 3074.897,1494.980 3074.933 C 1487.029 3075.015,1471.328 3062.269,1465.504 3051.007 C 1461.683 3043.619,1461.778 3042.226,1466.389 3038.053 C 1469.230 3035.482,1481.667 3030.669,1494.027 3027.358 C 1532.230 3017.125,1540.005 3016.434,1546.286 3022.714 M1928.398 3056.343 C 1928.892 3064.675,1927.204 3079.564,1924.648 3089.429 C 1917.872 3115.576,1918.669 3130.702,1927.626 3145.986 C 1936.230 3160.668,1933.725 3162.589,1920.494 3151.455 C 1913.094 3145.229,1910.908 3140.239,1907.984 3122.905 C 1903.401 3095.737,1905.022 3044.684,1910.683 3037.874 C 1914.331 3033.486,1915.672 3033.376,1921.183 3037.019 C 1925.959 3040.176,1927.719 3044.890,1928.398 3056.343 M2289.776 3049.614 C 2298.654 3053.060,2299.992 3066.131,2292.120 3072.506 C 2281.012 3081.501,2235.053 3078.089,2217.497 3066.967 C 2210.849 3062.755,2210.754 3062.244,2215.619 3056.868 C 2218.437 3053.754,2226.314 3049.870,2233.122 3048.236 C 2245.912 3045.168,2280.488 3046.009,2289.776 3049.614 M1853.845 3061.782 C 1859.052 3067.712,1862.764 3074.125,1862.095 3076.032 C 1859.285 3084.037,1840.646 3073.657,1835.998 3061.500 C 1830.570 3047.299,1841.278 3047.468,1853.845 3061.782 M1401.000 3068.755 C 1401.000 3084.380,1398.534 3090.000,1391.679 3090.000 C 1384.554 3090.000,1384.030 3078.512,1390.577 3065.851 C 1396.894 3053.635,1401.000 3054.779,1401.000 3068.755 M2496.170 3076.882 C 2519.740 3089.710,2518.750 3096.479,2491.414 3109.411 C 2472.337 3118.436,2442.331 3125.894,2424.854 3125.956 C 2407.686 3126.016,2391.000 3112.019,2391.000 3097.557 C 2391.000 3085.294,2396.749 3080.314,2409.486 3081.545 C 2416.334 3082.207,2420.451 3084.695,2422.910 3089.655 C 2427.789 3099.496,2432.475 3101.901,2446.883 3101.954 C 2461.431 3102.008,2467.064 3096.783,2464.306 3085.794 C 2459.684 3067.381,2472.255 3063.866,2496.170 3076.882 M1704.133 3094.660 C 1709.531 3101.164,1708.959 3116.327,1703.093 3122.192 C 1698.551 3126.734,1697.734 3126.689,1692.093 3121.585 C 1684.721 3114.912,1684.204 3102.957,1690.965 3095.486 C 1697.024 3088.791,1699.151 3088.658,1704.133 3094.660 M2300.798 3122.090 C 2302.541 3128.366,2303.974 3137.137,2303.983 3141.583 C 2304.012 3155.394,2315.601 3165.554,2333.264 3167.251 C 2351.685 3169.021,2362.709 3166.691,2365.075 3160.526 C 2367.972 3152.976,2364.289 3148.092,2350.255 3140.874 C 2328.856 3129.868,2327.977 3112.000,2348.974 3114.816 C 2375.210 3118.335,2387.191 3138.542,2377.730 3163.316 C 2372.319 3177.484,2358.063 3191.988,2349.520 3192.017 C 2339.612 3192.050,2321.862 3198.396,2316.730 3203.740 C 2309.739 3211.021,2299.775 3216.000,2292.197 3216.000 C 2288.789 3216.000,2285.993 3215.663,2285.984 3215.250 C 2285.975 3214.838,2283.275 3198.548,2279.984 3179.051 C 2273.291 3139.403,2272.285 3107.811,2277.409 3098.235 C 2280.772 3091.952,2280.933 3091.993,2289.224 3101.273 C 2293.847 3106.447,2299.055 3115.815,2300.798 3122.090 M2588.400 3105.600 C 2592.760 3109.960,2593.056 3125.787,2588.893 3132.000 C 2586.320 3135.840,2585.008 3135.462,2579.939 3129.418 C 2567.903 3115.064,2575.756 3092.956,2588.400 3105.600 M2236.914 3111.201 C 2257.583 3121.206,2258.344 3135.000,2238.228 3135.000 C 2225.778 3135.000,2212.583 3126.713,2209.484 3116.949 C 2205.274 3103.686,2216.523 3101.329,2236.914 3111.201 M1517.309 3117.750 C 1518.982 3119.813,1520.185 3127.155,1519.982 3134.067 C 1519.702 3143.562,1521.386 3148.524,1526.869 3154.361 C 1532.859 3160.737,1533.636 3163.464,1531.314 3169.965 C 1528.206 3178.667,1518.196 3183.829,1511.935 3179.960 C 1509.247 3178.298,1508.139 3172.369,1508.606 3162.137 L 1509.306 3146.805 1491.903 3139.110 C 1470.878 3129.815,1468.025 3126.171,1476.350 3119.250 C 1483.887 3112.983,1512.587 3111.932,1517.309 3117.750 M547.807 3145.436 C 552.927 3150.421,565.434 3166.965,575.602 3182.201 C 620.491 3249.463,699.919 3328.998,790.500 3397.387 C 831.389 3428.259,1006.070 3543.088,1036.500 3559.099 C 1086.733 3585.530,1198.422 3624.757,1337.317 3664.750 C 1627.297 3748.248,1743.113 3764.493,2024.013 3761.074 C 2119.839 3759.907,2154.991 3758.455,2172.731 3754.931 C 2185.508 3752.393,2246.258 3736.020,2307.731 3718.547 C 2435.149 3682.329,2488.293 3668.929,2623.500 3638.923 C 2818.771 3595.587,2888.970 3581.316,2949.000 3572.750 C 2982.825 3567.923,3031.583 3559.929,3057.352 3554.985 C 3083.120 3550.041,3116.195 3544.573,3130.852 3542.835 C 3146.039 3541.033,3280.070 3538.555,3442.500 3537.073 C 3784.910 3533.947,3927.058 3528.031,3996.651 3514.008 C 4014.409 3510.430,4021.282 3510.082,4023.831 3512.631 C 4030.522 3519.322,4018.654 3524.748,3973.929 3535.448 C 3864.626 3561.598,3825.344 3563.959,3318.573 3574.831 C 3266.914 3575.940,3225.739 3577.897,3227.073 3579.182 C 3233.188 3585.065,3433.044 3593.889,3561.000 3593.924 C 3685.726 3593.958,3828.438 3586.023,3891.000 3575.576 C 3901.725 3573.785,3926.058 3567.221,3945.074 3560.991 C 3964.090 3554.760,3997.165 3546.124,4018.574 3541.801 C 4071.689 3531.076,4105.064 3519.446,4157.221 3493.487 C 4206.330 3469.045,4253.593 3439.256,4290.359 3409.572 C 4321.097 3384.755,4331.806 3382.870,4315.394 3405.167 C 4299.865 3426.265,4238.131 3474.819,4185.000 3507.724 C 4115.128 3550.996,4004.244 3591.661,3893.093 3614.776 C 3799.518 3634.236,3812.325 3633.620,3450.000 3636.068 C 3093.538 3638.476,3094.975 3638.415,2993.895 3655.514 C 2842.024 3681.205,2760.901 3702.222,2544.000 3772.066 C 2411.063 3814.873,2372.937 3826.428,2323.819 3838.797 C 2279.831 3849.875,2212.734 3861.995,2175.932 3865.512 C 2164.070 3866.645,2151.920 3869.426,2148.932 3871.691 C 2136.584 3881.052,2231.574 3875.020,2318.625 3860.915 C 2381.842 3850.671,2445.373 3833.400,2574.000 3791.491 C 2770.048 3727.614,2866.888 3703.799,2999.561 3686.834 C 3036.445 3682.118,3070.870 3676.961,3076.061 3675.374 C 3093.322 3670.096,3178.897 3668.619,3468.931 3668.589 C 3741.525 3668.562,3831.000 3670.129,3831.000 3674.931 C 3831.000 3676.097,3825.731 3678.629,3819.291 3680.558 C 3812.852 3682.488,3804.414 3686.637,3800.541 3689.780 L 3793.500 3695.494 3801.921 3697.615 C 3820.951 3702.409,3884.415 3690.405,3945.372 3670.483 C 4026.877 3643.845,4018.620 3658.726,3933.323 3692.199 C 3845.125 3726.811,3735.763 3760.386,3636.213 3783.416 C 3448.634 3826.810,3087.855 3915.898,3016.500 3936.443 C 2965.927 3951.004,2888.994 3975.206,2778.000 4011.472 C 2582.116 4075.475,2492.864 4096.623,2331.000 4117.388 C 2136.572 4142.331,2039.676 4143.850,1839.255 4125.098 C 1785.770 4120.094,1739.195 4116.150,1735.755 4116.332 C 1726.765 4116.810,1791.653 4132.678,1837.500 4141.215 C 1901.935 4153.212,1946.954 4156.370,2052.000 4156.265 C 2178.893 4156.138,2284.430 4148.234,2413.500 4129.194 C 2562.814 4107.167,2657.945 4082.473,2958.000 3987.854 C 3101.899 3942.477,3132.347 3933.623,3167.889 3926.822 C 3226.489 3915.608,3259.170 3908.602,3342.000 3889.497 C 3387.375 3879.031,3473.775 3860.144,3534.000 3847.526 C 3695.642 3813.660,3741.909 3802.489,3810.000 3780.887 C 3983.853 3725.732,4080.510 3684.165,4164.000 3628.650 C 4205.626 3600.972,4236.045 3575.803,4285.971 3527.731 C 4320.285 3494.693,4333.846 3483.846,4336.955 3486.955 C 4340.127 3490.127,4321.362 3510.896,4269.835 3561.248 C 4170.604 3658.215,4086.906 3717.359,3981.617 3764.913 C 3872.139 3814.359,3793.881 3840.640,3439.500 3946.972 C 3100.437 4048.707,3033.787 4071.618,2908.500 4129.500 C 2837.751 4162.185,2820.859 4169.160,2752.529 4193.901 C 2726.113 4203.466,2691.675 4217.019,2676.000 4224.019 C 2623.606 4247.416,2614.555 4250.857,2605.219 4250.929 C 2600.114 4250.968,2582.097 4255.762,2565.181 4261.582 C 2548.265 4267.402,2521.392 4274.241,2505.463 4276.780 C 2467.428 4282.842,2458.172 4284.966,2422.500 4295.813 C 2337.946 4321.524,2269.346 4328.733,2160.327 4323.366 C 2050.908 4317.979,1990.984 4311.867,1891.500 4295.947 C 1789.973 4279.700,1712.953 4261.750,1686.196 4248.100 C 1679.503 4244.686,1658.159 4237.362,1638.764 4231.825 C 1619.369 4226.288,1582.575 4213.648,1557.000 4203.737 C 1531.425 4193.825,1503.075 4183.322,1494.000 4180.395 C 1456.427 4168.277,1339.576 4115.538,1317.922 4100.924 C 1310.380 4095.834,1293.250 4086.183,1279.855 4079.478 C 1196.234 4037.618,984.444 3873.388,880.241 3769.602 C 830.103 3719.664,790.569 3675.781,730.500 3603.387 C 671.163 3531.875,658.837 3514.546,636.339 3471.000 C 580.363 3362.661,534.835 3225.697,532.127 3157.500 C 531.032 3129.915,531.447 3125.474,534.659 3130.436 C 536.771 3133.701,542.688 3140.451,547.807 3145.436 M1591.286 3151.714 C 1593.879 3154.307,1596.000 3157.586,1596.000 3159.000 C 1596.000 3162.333,1587.333 3171.000,1584.000 3171.000 C 1580.667 3171.000,1572.000 3162.333,1572.000 3159.000 C 1572.000 3155.667,1580.667 3147.000,1584.000 3147.000 C 1585.414 3147.000,1588.693 3149.121,1591.286 3151.714 M1689.798 3151.405 C 1711.724 3156.052,1743.814 3169.251,1749.324 3175.890 C 1752.144 3179.288,1749.778 3180.000,1735.670 3180.000 C 1717.295 3180.000,1709.548 3177.107,1698.341 3166.058 C 1690.271 3158.102,1682.389 3157.007,1677.303 3163.135 C 1671.799 3169.767,1677.946 3181.050,1699.653 3204.163 C 1722.551 3228.544,1723.651 3235.046,1705.109 3236.404 C 1694.630 3237.171,1691.339 3235.877,1683.286 3227.825 C 1663.881 3208.419,1641.000 3169.895,1641.000 3156.629 C 1641.000 3146.059,1656.658 3144.383,1689.798 3151.405 M2169.133 3151.660 C 2174.887 3158.594,2173.930 3174.169,2167.460 3178.901 C 2155.318 3187.779,2144.557 3162.872,2155.714 3151.714 C 2161.627 3145.801,2164.261 3145.790,2169.133 3151.660 M2503.255 3148.821 C 2510.527 3151.612,2508.900 3161.272,2500.197 3166.974 C 2494.433 3170.751,2491.101 3171.273,2487.447 3168.972 C 2472.894 3159.808,2486.543 3142.408,2503.255 3148.821 M1970.434 3177.117 C 1979.075 3185.167,1978.886 3192.000,1970.023 3192.000 C 1962.005 3192.000,1948.391 3179.030,1951.363 3174.222 C 1954.513 3169.124,1963.284 3170.456,1970.434 3177.117 M2091.000 3199.298 C 2091.000 3204.213,2077.585 3216.585,2075.027 3214.027 C 2071.113 3210.113,2073.053 3198.269,2078.069 3195.461 C 2084.079 3192.098,2091.000 3194.151,2091.000 3199.298 M2476.302 3209.680 C 2478.504 3213.242,2464.030 3216.731,2456.701 3214.405 C 2453.518 3213.395,2451.687 3211.315,2452.633 3209.784 C 2454.835 3206.222,2474.113 3206.137,2476.302 3209.680 M1836.000 3228.000 C 1847.257 3239.257,1841.525 3249.000,1823.645 3249.000 C 1807.979 3249.000,1803.000 3246.432,1803.000 3238.349 C 1803.000 3223.872,1824.979 3216.979,1836.000 3228.000 M4136.981 3227.803 C 4125.934 3231.163,4111.118 3239.219,4095.392 3250.415 C 4058.974 3276.343,3943.209 3323.095,3864.597 3343.623 C 3826.311 3353.620,3764.468 3362.125,3702.866 3365.865 C 3639.728 3369.698,3421.639 3369.739,3307.500 3365.938 C 3180.060 3361.695,2952.328 3358.802,2936.250 3361.222 C 2922.069 3363.357,2918.101 3366.862,2926.302 3370.009 C 2942.074 3376.061,3030.118 3382.818,3147.000 3386.947 C 3195.675 3388.667,3276.000 3391.555,3325.500 3393.367 C 3517.148 3400.380,3611.302 3399.562,3750.000 3389.676 C 3812.784 3385.201,3904.954 3363.844,3957.992 3341.481 C 3969.822 3336.494,3987.770 3330.062,3997.878 3327.189 C 4035.979 3316.358,4165.055 3236.988,4159.413 3227.859 C 4157.366 3224.547,4147.764 3224.523,4136.981 3227.803 M2271.957 3237.592 C 2271.279 3247.697,2261.455 3261.256,2249.841 3268.117 C 2240.072 3273.888,2235.781 3272.633,2232.202 3262.959 C 2226.409 3247.299,2244.944 3227.001,2263.500 3228.684 C 2271.234 3229.385,2272.424 3230.638,2271.957 3237.592 M1901.422 3237.714 C 1902.599 3243.825,1888.422 3258.973,1883.165 3257.223 C 1876.999 3255.170,1877.441 3247.520,1884.225 3238.895 C 1891.200 3230.028,1899.828 3229.436,1901.422 3237.714 M2146.124 3259.399 C 2142.351 3269.230,2098.500 3277.765,2098.500 3268.668 C 2098.500 3264.741,2116.571 3254.565,2128.021 3252.045 C 2139.225 3249.578,2148.454 3253.327,2146.124 3259.399 M2363.881 3265.356 C 2368.169 3270.523,2365.582 3280.751,2359.386 3283.129 C 2348.959 3287.130,2340.683 3276.935,2346.116 3266.783 C 2349.776 3259.944,2358.789 3259.221,2363.881 3265.356 M3365.401 3684.083 C 3352.697 3685.517,3337.847 3689.060,3332.401 3691.959 L 3322.500 3697.228 3334.500 3699.416 C 3341.100 3700.620,3374.175 3703.100,3408.000 3704.928 C 3480.889 3708.867,3554.638 3715.525,3593.615 3721.685 C 3614.817 3725.035,3622.748 3725.284,3625.865 3722.697 C 3632.033 3717.578,3631.040 3715.607,3619.530 3710.119 C 3584.201 3693.271,3426.846 3677.150,3365.401 3684.083 M3078.000 3719.042 C 3032.526 3726.468,2883.833 3759.962,2852.601 3769.815 C 2840.007 3773.788,2828.003 3779.086,2825.927 3781.588 C 2822.848 3785.298,2822.922 3785.880,2826.326 3784.744 C 2828.622 3783.978,2873.025 3773.825,2925.000 3762.183 C 3031.472 3738.333,3083.172 3725.028,3087.952 3720.248 C 3089.738 3718.462,3089.918 3717.184,3088.350 3717.409 C 3086.783 3717.633,3082.125 3718.368,3078.000 3719.042 M3436.500 3738.427 C 3366.607 3743.424,3191.003 3767.580,3123.511 3781.481 C 3095.769 3787.195,3023.461 3804.061,2962.827 3818.960 C 2776.450 3864.759,2575.019 3909.968,2408.003 3943.484 C 2228.589 3979.489,2173.592 3985.369,2017.500 3985.237 C 1902.011 3985.140,1856.659 3982.178,1767.050 3968.882 C 1706.655 3959.921,1588.135 3929.132,1542.810 3910.630 C 1521.555 3901.953,1521.000 3901.840,1521.000 3906.190 C 1521.000 3910.321,1568.925 3932.830,1603.348 3944.866 C 1637.454 3956.791,1763.554 3988.475,1800.434 3994.386 C 1841.018 4000.890,1935.574 4007.883,2010.000 4009.883 C 2060.730 4011.247,2091.793 4010.265,2155.500 4005.283 C 2305.380 3993.563,2379.091 3980.978,2614.500 3926.918 C 2701.643 3906.906,2738.870 3898.076,2979.000 3840.466 C 3185.784 3790.857,3263.878 3776.421,3418.500 3759.228 C 3503.726 3749.751,3545.110 3743.090,3550.163 3738.037 C 3553.827 3734.373,3490.141 3734.592,3436.500 3738.427 M3264.000 3952.434 C 3215.052 3966.815,3117.141 4002.671,3006.000 4046.917 C 2752.369 4147.889,2494.001 4217.547,2302.500 4236.587 C 2248.226 4241.983,1955.201 4241.998,1909.500 4236.607 C 1865.247 4231.387,1812.538 4220.519,1767.000 4207.224 C 1715.827 4192.285,1711.427 4191.648,1726.500 4201.371 C 1754.266 4219.279,1874.923 4249.719,1946.568 4256.890 C 1986.592 4260.897,2204.567 4260.903,2278.500 4256.901 C 2399.192 4250.367,2512.227 4229.595,2662.500 4186.334 C 2759.660 4158.364,2969.867 4086.930,3028.500 4061.959 C 3056.550 4050.012,3123.148 4023.561,3176.494 4003.179 C 3273.185 3966.235,3304.971 3952.122,3303.975 3946.575 C 3303.065 3941.505,3299.338 3942.052,3264.000 3952.434 " stroke="none" fill="black" fill-rule="evenodd"/></svg>